<svg
	width="702"
	height="559"
	viewBox="0 0 702 559"
	fill="none"
	xmlns="http://www.w3.org/2000/svg"
>
	<rect
		x="117"
		y="183.353"
		width="40"
		height="40"
		rx="10"
		transform="rotate(-15 117 183.353)"
		fill="#4535AF"
	/>
	<g clip-path="url(#clip0_0_24)">
		<rect x="180" width="410" height="526" rx="10" fill="#52BD94" />
		<path
			d="M230 1.5L207 122.5L283.5 56L308 149L389 56L408 149L456.5 97.5L471.5 223L552 97.5L557.5 229.5L589.5 263.5"
			stroke="#30946D"
			stroke-width="5"
		/>
		<path
			d="M164 206.303C189.826 206.56 244.241 214.608 255.288 244.751C266.334 274.895 378.027 223.477 432.493 194L444 473.901C399.507 492.1 311.748 535.726 316.658 564.638C322.795 600.78 300.548 609.238 261.425 609.238C222.301 609.238 228.438 621.541 209.26 630"
			stroke="#30946D"
			stroke-width="5"
		/>
	</g>
	<rect
		x="504.353"
		y="510"
		width="40"
		height="40"
		rx="10"
		transform="rotate(15 504.353 510)"
		fill="#FFAA94"
	/>
	<g clip-path="url(#clip1_0_24)">
		<path
			d="M525.092 538.851C524.978 539.278 524.698 539.642 524.316 539.863C523.933 540.084 523.478 540.144 523.051 540.029L513.392 537.441L509.309 539.798L512.76 526.919C512.874 526.492 513.154 526.128 513.537 525.907C513.919 525.686 514.374 525.626 514.801 525.74L526.07 528.76C526.497 528.874 526.861 529.154 527.082 529.537C527.303 529.919 527.363 530.374 527.249 530.801L525.092 538.851Z"
			stroke="white"
			stroke-width="1.66667"
			stroke-linecap="round"
			stroke-linejoin="round"
		/>
	</g>
	<rect
		x="577.571"
		y="25.9998"
		width="48.5725"
		height="48.5725"
		rx="10"
		transform="rotate(15 577.571 25.9998)"
		fill="#FBC75E"
	/>
	<g clip-path="url(#clip2_0_24)">
		<path
			d="M595.863 52.78C599.864 53.8521 603.397 53.64 603.754 52.3064C604.112 50.9727 601.158 49.0225 597.157 47.9504C593.156 46.8784 589.623 47.0904 589.265 48.4241C588.908 49.7578 591.862 51.708 595.863 52.78Z"
			stroke="#F8F8FA"
			stroke-width="1.66667"
			stroke-linecap="round"
			stroke-linejoin="round"
		/>
		<path
			d="M602.244 57.9411C601.886 59.2773 598.377 59.4932 594.352 58.4148C590.328 57.3364 587.397 55.395 587.755 54.0588"
			stroke="#F8F8FA"
			stroke-width="1.66667"
			stroke-linecap="round"
			stroke-linejoin="round"
		/>
		<path
			d="M589.265 48.4243L586.245 59.6935C585.887 61.0296 588.818 62.971 592.843 64.0494C596.867 65.1278 600.376 64.9119 600.734 63.5757L603.754 52.3066"
			stroke="#F8F8FA"
			stroke-width="1.66667"
			stroke-linecap="round"
			stroke-linejoin="round"
		/>
	</g>
	<rect y="30" width="262" height="78" rx="10" fill="white" />
	<path
		d="M19.0568 56V47.2727H24.3239V48.2102H20.1136V51.1591H24.0511V52.0966H20.1136V55.0625H24.392V56H19.0568ZM27.098 52.0625V56H26.0923V49.4545H27.0639V50.4773H27.1491C27.3026 50.1449 27.5355 49.8778 27.848 49.6761C28.1605 49.4716 28.5639 49.3693 29.0582 49.3693C29.5014 49.3693 29.8892 49.4602 30.2216 49.642C30.554 49.821 30.8125 50.0938 30.9972 50.4602C31.1818 50.8239 31.2741 51.2841 31.2741 51.8409V56H30.2685V51.9091C30.2685 51.3949 30.1349 50.9943 29.8679 50.7074C29.6009 50.4176 29.2344 50.2727 28.7685 50.2727C28.4474 50.2727 28.1605 50.3423 27.9077 50.4815C27.6577 50.6207 27.4602 50.8239 27.3153 51.0909C27.1705 51.358 27.098 51.6818 27.098 52.0625ZM35.9585 49.4545V50.3068H32.5664V49.4545H35.9585ZM33.555 47.8864H34.5607V54.125C34.5607 54.4091 34.6019 54.6222 34.6843 54.7642C34.7695 54.9034 34.8775 54.9972 35.0082 55.0455C35.1417 55.0909 35.2823 55.1136 35.43 55.1136C35.5408 55.1136 35.6317 55.108 35.7028 55.0966C35.7738 55.0824 35.8306 55.071 35.8732 55.0625L36.0778 55.9659C36.0096 55.9915 35.9144 56.017 35.7923 56.0426C35.6701 56.071 35.5153 56.0852 35.3278 56.0852C35.0437 56.0852 34.7653 56.0241 34.4925 55.902C34.2227 55.7798 33.9982 55.5938 33.8192 55.3438C33.6431 55.0938 33.555 54.7784 33.555 54.3977V47.8864ZM40.1452 56.1364C39.5146 56.1364 38.9705 55.9972 38.5131 55.7188C38.0586 55.4375 37.7077 55.0455 37.4606 54.5426C37.2163 54.0369 37.0941 53.4489 37.0941 52.7784C37.0941 52.108 37.2163 51.517 37.4606 51.0057C37.7077 50.4915 38.0515 50.0909 38.4918 49.804C38.935 49.5142 39.4521 49.3693 40.043 49.3693C40.3839 49.3693 40.7205 49.4261 41.0529 49.5398C41.3853 49.6534 41.6879 49.8381 41.9606 50.0938C42.2333 50.3466 42.4506 50.6818 42.6126 51.0994C42.7745 51.517 42.8555 52.0312 42.8555 52.642V53.0682H37.81V52.1989H41.8327C41.8327 51.8295 41.7589 51.5 41.6112 51.2102C41.4663 50.9205 41.2589 50.6918 40.989 50.5241C40.7219 50.3565 40.4066 50.2727 40.043 50.2727C39.6424 50.2727 39.2958 50.3722 39.0032 50.571C38.7134 50.767 38.4904 51.0227 38.3342 51.3381C38.1779 51.6534 38.0998 51.9915 38.0998 52.3523V52.9318C38.0998 53.4261 38.185 53.8452 38.3555 54.1889C38.5288 54.5298 38.7688 54.7898 39.0756 54.9688C39.3825 55.1449 39.739 55.233 40.1452 55.233C40.4094 55.233 40.6481 55.196 40.8612 55.1222C41.0771 55.0455 41.2631 54.9318 41.4194 54.7812C41.5756 54.6278 41.6964 54.4375 41.7816 54.2102L42.7532 54.483C42.6509 54.8125 42.479 55.1023 42.2376 55.3523C41.9961 55.5994 41.6978 55.7926 41.3427 55.9318C40.9876 56.0682 40.5884 56.1364 40.1452 56.1364ZM44.3853 56V49.4545H45.3569V50.4432H45.4251C45.5444 50.1193 45.7603 49.8565 46.0728 49.6548C46.3853 49.4531 46.7376 49.3523 47.1296 49.3523C47.2035 49.3523 47.2958 49.3537 47.4066 49.3565C47.5174 49.3594 47.6012 49.3636 47.658 49.3693V50.392C47.6239 50.3835 47.5458 50.3707 47.4237 50.3537C47.3043 50.3338 47.1779 50.3239 47.0444 50.3239C46.7262 50.3239 46.4421 50.3906 46.1921 50.5241C45.945 50.6548 45.7489 50.8366 45.604 51.0696C45.462 51.2997 45.391 51.5625 45.391 51.858V56H44.3853ZM54.1513 56.1534C53.7365 56.1534 53.3601 56.0753 53.022 55.919C52.6839 55.7599 52.4155 55.5312 52.2166 55.233C52.0178 54.9318 51.9183 54.5682 51.9183 54.142C51.9183 53.767 51.9922 53.4631 52.1399 53.2301C52.2876 52.9943 52.4851 52.8097 52.7322 52.6761C52.9794 52.5426 53.2521 52.4432 53.5504 52.3778C53.8516 52.3097 54.1541 52.2557 54.4581 52.2159C54.8558 52.1648 55.1783 52.1264 55.4254 52.1009C55.6754 52.0724 55.8572 52.0256 55.9709 51.9602C56.0874 51.8949 56.1456 51.7812 56.1456 51.6193V51.5852C56.1456 51.1648 56.0305 50.8381 55.8004 50.6051C55.5732 50.3722 55.228 50.2557 54.7649 50.2557C54.2848 50.2557 53.9084 50.3608 53.6357 50.571C53.3629 50.7812 53.1712 51.0057 53.0604 51.2443L52.1058 50.9034C52.2763 50.5057 52.5036 50.196 52.7876 49.9744C53.0746 49.75 53.3871 49.5937 53.7251 49.5057C54.0661 49.4148 54.4013 49.3693 54.7308 49.3693C54.9411 49.3693 55.1825 49.3949 55.4553 49.446C55.7308 49.4943 55.9964 49.5952 56.2521 49.7486C56.5107 49.902 56.7251 50.1335 56.8956 50.4432C57.0661 50.7528 57.1513 51.1676 57.1513 51.6875V56H56.1456V55.1136H56.0945C56.0263 55.2557 55.9126 55.4077 55.7536 55.5696C55.5945 55.7315 55.3828 55.8693 55.1186 55.983C54.8544 56.0966 54.532 56.1534 54.1513 56.1534ZM54.3047 55.25C54.7024 55.25 55.0376 55.1719 55.3104 55.0156C55.5859 54.8594 55.7933 54.6577 55.9325 54.4105C56.0746 54.1634 56.1456 53.9034 56.1456 53.6307V52.7102C56.103 52.7614 56.0092 52.8082 55.8643 52.8509C55.7223 52.8906 55.5575 52.9261 55.37 52.9574C55.1854 52.9858 55.005 53.0114 54.8288 53.0341C54.6555 53.054 54.5149 53.071 54.407 53.0852C54.1456 53.1193 53.9013 53.1747 53.674 53.2514C53.4496 53.3253 53.2678 53.4375 53.1286 53.5881C52.9922 53.7358 52.924 53.9375 52.924 54.1932C52.924 54.5426 53.0533 54.8068 53.3118 54.9858C53.5732 55.1619 53.9041 55.25 54.3047 55.25ZM58.9869 56V49.4545H59.9585V50.4773H60.0437C60.18 50.1278 60.4002 49.8565 60.7042 49.6634C61.0082 49.4673 61.3732 49.3693 61.7994 49.3693C62.2312 49.3693 62.5906 49.4673 62.8775 49.6634C63.1673 49.8565 63.3931 50.1278 63.555 50.4773H63.6232C63.7908 50.1392 64.0423 49.8707 64.3775 49.6719C64.7127 49.4702 65.1147 49.3693 65.5835 49.3693C66.1687 49.3693 66.6474 49.5526 67.0195 49.919C67.3917 50.2827 67.5778 50.8494 67.5778 51.6193V56H66.5721V51.6193C66.5721 51.1364 66.44 50.7912 66.1758 50.5838C65.9116 50.3764 65.6005 50.2727 65.2425 50.2727C64.7823 50.2727 64.4258 50.4119 64.1729 50.6903C63.9201 50.9659 63.7937 51.3153 63.7937 51.7386V56H62.771V51.517C62.771 51.1449 62.6502 50.8452 62.4087 50.6179C62.1673 50.3878 61.8562 50.2727 61.4755 50.2727C61.2141 50.2727 60.9698 50.3423 60.7425 50.4815C60.5181 50.6207 60.3363 50.8139 60.1971 51.0611C60.0607 51.3054 59.9925 51.5881 59.9925 51.9091V56H58.9869ZM72.0756 56.1364C71.4847 56.1364 70.9663 55.9957 70.5202 55.7145C70.0771 55.4332 69.7305 55.0398 69.4805 54.5341C69.2333 54.0284 69.1097 53.4375 69.1097 52.7614C69.1097 52.0795 69.2333 51.4844 69.4805 50.9759C69.7305 50.4673 70.0771 50.0724 70.5202 49.7912C70.9663 49.5099 71.4847 49.3693 72.0756 49.3693C72.6665 49.3693 73.1836 49.5099 73.6268 49.7912C74.0728 50.0724 74.4194 50.4673 74.6665 50.9759C74.9165 51.4844 75.0415 52.0795 75.0415 52.7614C75.0415 53.4375 74.9165 54.0284 74.6665 54.5341C74.4194 55.0398 74.0728 55.4332 73.6268 55.7145C73.1836 55.9957 72.6665 56.1364 72.0756 56.1364ZM72.0756 55.233C72.5245 55.233 72.8938 55.1179 73.1836 54.8878C73.4734 54.6577 73.6879 54.3551 73.8271 53.9801C73.9663 53.6051 74.0359 53.1989 74.0359 52.7614C74.0359 52.3239 73.9663 51.9162 73.8271 51.5384C73.6879 51.1605 73.4734 50.8551 73.1836 50.6222C72.8938 50.3892 72.5245 50.2727 72.0756 50.2727C71.6268 50.2727 71.2575 50.3892 70.9677 50.6222C70.6779 50.8551 70.4634 51.1605 70.3242 51.5384C70.185 51.9162 70.1154 52.3239 70.1154 52.7614C70.1154 53.1989 70.185 53.6051 70.3242 53.9801C70.4634 54.3551 70.6779 54.6577 70.9677 54.8878C71.2575 55.1179 71.6268 55.233 72.0756 55.233ZM80.7017 53.3239V49.4545H81.7074V56H80.7017V54.892H80.6335C80.4801 55.2244 80.2415 55.5071 79.9176 55.7401C79.5938 55.9702 79.1847 56.0852 78.6903 56.0852C78.2812 56.0852 77.9176 55.9957 77.5994 55.8168C77.2813 55.6349 77.0313 55.3622 76.8494 54.9986C76.6676 54.6321 76.5767 54.1705 76.5767 53.6136V49.4545H77.5824V53.5455C77.5824 54.0227 77.7159 54.4034 77.983 54.6875C78.2528 54.9716 78.5966 55.1136 79.0142 55.1136C79.2642 55.1136 79.5185 55.0497 79.777 54.9219C80.0384 54.794 80.2571 54.598 80.4332 54.3338C80.6122 54.0696 80.7017 53.733 80.7017 53.3239ZM84.555 52.0625V56H83.5494V49.4545H84.521V50.4773H84.6062C84.7596 50.1449 84.9925 49.8778 85.305 49.6761C85.6175 49.4716 86.021 49.3693 86.5153 49.3693C86.9585 49.3693 87.3462 49.4602 87.6786 49.642C88.011 49.821 88.2695 50.0938 88.4542 50.4602C88.6388 50.8239 88.7312 51.2841 88.7312 51.8409V56H87.7255V51.9091C87.7255 51.3949 87.592 50.9943 87.3249 50.7074C87.0579 50.4176 86.6914 50.2727 86.2255 50.2727C85.9045 50.2727 85.6175 50.3423 85.3647 50.4815C85.1147 50.6207 84.9173 50.8239 84.7724 51.0909C84.6275 51.358 84.555 51.6818 84.555 52.0625ZM93.4155 49.4545V50.3068H90.0234V49.4545H93.4155ZM91.0121 47.8864H92.0178V54.125C92.0178 54.4091 92.0589 54.6222 92.1413 54.7642C92.2266 54.9034 92.3345 54.9972 92.4652 55.0455C92.5987 55.0909 92.7393 55.1136 92.8871 55.1136C92.9979 55.1136 93.0888 55.108 93.1598 55.0966C93.2308 55.0824 93.2876 55.071 93.3303 55.0625L93.5348 55.9659C93.4666 55.9915 93.3714 56.017 93.2493 56.0426C93.1271 56.071 92.9723 56.0852 92.7848 56.0852C92.5007 56.0852 92.2223 56.0241 91.9496 55.902C91.6797 55.7798 91.4553 55.5938 91.2763 55.3438C91.1001 55.0938 91.0121 54.7784 91.0121 54.3977V47.8864Z"
		fill="#A9A7B6"
	/>
	<path
		d="M22.7102 86.4545V71.9091H23.642V86.4545H22.7102ZM25.625 76.4205C25.5644 75.8826 25.3144 75.4659 24.875 75.1705C24.4356 74.8712 23.8826 74.7216 23.2159 74.7216C22.7386 74.7216 22.3258 74.7973 21.9773 74.9489C21.6288 75.0966 21.358 75.3011 21.1648 75.5625C20.9754 75.8201 20.8807 76.1136 20.8807 76.4432C20.8807 76.7197 20.9451 76.9583 21.0739 77.1591C21.2064 77.3598 21.3788 77.5284 21.5909 77.6648C21.8068 77.7973 22.0379 77.9091 22.2841 78C22.5303 78.0871 22.767 78.1591 22.9943 78.2159L24.1307 78.5114C24.5019 78.6023 24.8826 78.7254 25.2727 78.8807C25.6629 79.036 26.0246 79.2405 26.358 79.4943C26.6913 79.7481 26.9602 80.0625 27.1648 80.4375C27.3731 80.8125 27.4773 81.2614 27.4773 81.7841C27.4773 82.4432 27.3068 83.0284 26.9659 83.5398C26.6288 84.0511 26.1383 84.4545 25.4943 84.75C24.8542 85.0455 24.0795 85.1932 23.1705 85.1932C22.2992 85.1932 21.5455 85.0549 20.9091 84.7784C20.2727 84.5019 19.7746 84.1098 19.4148 83.6023C19.0549 83.0909 18.8561 82.4848 18.8182 81.7841H20.5795C20.6136 82.2045 20.75 82.5549 20.9886 82.8352C21.2311 83.1117 21.5398 83.3182 21.9148 83.4545C22.2936 83.5871 22.7083 83.6534 23.1591 83.6534C23.6553 83.6534 24.0966 83.5758 24.483 83.4205C24.8731 83.2614 25.1799 83.0417 25.4034 82.7614C25.6269 82.4773 25.7386 82.1458 25.7386 81.767C25.7386 81.4223 25.6402 81.1402 25.4432 80.9205C25.25 80.7008 24.9867 80.5189 24.6534 80.375C24.3239 80.2311 23.9508 80.1042 23.5341 79.9943L22.1591 79.6193C21.2273 79.3655 20.4886 78.9924 19.9432 78.5C19.4015 78.0076 19.1307 77.3561 19.1307 76.5455C19.1307 75.875 19.3125 75.2898 19.6761 74.7898C20.0398 74.2898 20.5322 73.9015 21.1534 73.625C21.7746 73.3447 22.4754 73.2045 23.2557 73.2045C24.0436 73.2045 24.7386 73.3428 25.3409 73.6193C25.947 73.8958 26.4242 74.2765 26.7727 74.7614C27.1212 75.2424 27.303 75.7955 27.3182 76.4205H25.625ZM29.1719 82.7273V81.3068L34.2003 73.3636H35.3196V75.4545H34.6094L31.0128 81.1477V81.2386H37.9048V82.7273H29.1719ZM34.6889 85V82.2955L34.7003 81.6477V73.3636H36.3651V85H34.6889ZM43.7259 85.1591C43.0137 85.1591 42.3736 85.0227 41.8054 84.75C41.241 84.4735 40.7902 84.0947 40.4531 83.6136C40.116 83.1326 39.9361 82.5833 39.9134 81.9659H41.6179C41.6596 82.4659 41.8812 82.8769 42.2827 83.1989C42.6842 83.5208 43.1652 83.6818 43.7259 83.6818C44.1728 83.6818 44.5687 83.5795 44.9134 83.375C45.2618 83.1667 45.5346 82.8807 45.7315 82.517C45.9323 82.1534 46.0327 81.7386 46.0327 81.2727C46.0327 80.7992 45.9304 80.3769 45.7259 80.0057C45.5213 79.6345 45.2391 79.3428 44.8793 79.1307C44.5232 78.9186 44.1141 78.8106 43.652 78.8068C43.2997 78.8068 42.9455 78.8674 42.5895 78.9886C42.2334 79.1098 41.9455 79.2689 41.7259 79.4659L40.1179 79.2273L40.7713 73.3636H47.169V74.8693H42.2315L41.8622 78.125H41.9304C42.1577 77.9053 42.4588 77.7216 42.8338 77.5739C43.2126 77.4261 43.6179 77.3523 44.0497 77.3523C44.758 77.3523 45.3887 77.5208 45.9418 77.858C46.4986 78.1951 46.9361 78.6553 47.2543 79.2386C47.5762 79.8182 47.7353 80.4848 47.7315 81.2386C47.7353 81.9924 47.5649 82.6648 47.2202 83.2557C46.8793 83.8466 46.4058 84.3125 45.7997 84.6534C45.1974 84.9905 44.5062 85.1591 43.7259 85.1591ZM53.858 85.1932C52.9602 85.1894 52.1932 84.9527 51.5568 84.483C50.9205 84.0133 50.4337 83.3295 50.0966 82.4318C49.7595 81.5341 49.5909 80.4527 49.5909 79.1875C49.5909 77.9261 49.7595 76.8485 50.0966 75.9545C50.4375 75.0606 50.9261 74.3788 51.5625 73.9091C52.2027 73.4394 52.9678 73.2045 53.858 73.2045C54.7481 73.2045 55.5114 73.4413 56.1477 73.9148C56.7841 74.3845 57.2708 75.0663 57.608 75.9602C57.9489 76.8504 58.1193 77.9261 58.1193 79.1875C58.1193 80.4564 57.9508 81.5398 57.6136 82.4375C57.2765 83.3314 56.7898 84.0152 56.1534 84.4886C55.517 84.9583 54.7519 85.1932 53.858 85.1932ZM53.858 83.6761C54.6458 83.6761 55.2614 83.2917 55.7045 82.5227C56.1515 81.7538 56.375 80.642 56.375 79.1875C56.375 78.2216 56.2727 77.4053 56.0682 76.7386C55.8674 76.0682 55.5777 75.5606 55.1989 75.2159C54.8239 74.8674 54.3769 74.6932 53.858 74.6932C53.0739 74.6932 52.4583 75.0795 52.0114 75.8523C51.5644 76.625 51.339 77.7367 51.3352 79.1875C51.3352 80.1572 51.4356 80.9773 51.6364 81.6477C51.8409 82.3144 52.1307 82.8201 52.5057 83.1648C52.8807 83.5057 53.3314 83.6761 53.858 83.6761ZM60.8551 85.108C60.5445 85.108 60.2775 84.9981 60.054 84.7784C59.8305 84.5549 59.7188 84.286 59.7188 83.9716C59.7188 83.661 59.8305 83.3958 60.054 83.1761C60.2775 82.9527 60.5445 82.8409 60.8551 82.8409C61.1657 82.8409 61.4328 82.9527 61.6562 83.1761C61.8797 83.3958 61.9915 83.661 61.9915 83.9716C61.9915 84.1799 61.9384 84.3712 61.8324 84.5455C61.7301 84.7159 61.5938 84.8523 61.4233 84.9545C61.2528 85.0568 61.0634 85.108 60.8551 85.108ZM65.3864 85.108C65.0758 85.108 64.8087 84.9981 64.5852 84.7784C64.3617 84.5549 64.25 84.286 64.25 83.9716C64.25 83.661 64.3617 83.3958 64.5852 83.1761C64.8087 82.9527 65.0758 82.8409 65.3864 82.8409C65.697 82.8409 65.964 82.9527 66.1875 83.1761C66.411 83.3958 66.5227 83.661 66.5227 83.9716C66.5227 84.1799 66.4697 84.3712 66.3636 84.5455C66.2614 84.7159 66.125 84.8523 65.9545 84.9545C65.7841 85.0568 65.5947 85.108 65.3864 85.108ZM72.4048 85.1932C71.5071 85.1894 70.7401 84.9527 70.1037 84.483C69.4673 84.0133 68.9806 83.3295 68.6435 82.4318C68.3063 81.5341 68.1378 80.4527 68.1378 79.1875C68.1378 77.9261 68.3063 76.8485 68.6435 75.9545C68.9844 75.0606 69.473 74.3788 70.1094 73.9091C70.7495 73.4394 71.5147 73.2045 72.4048 73.2045C73.295 73.2045 74.0582 73.4413 74.6946 73.9148C75.331 74.3845 75.8177 75.0663 76.1548 75.9602C76.4957 76.8504 76.6662 77.9261 76.6662 79.1875C76.6662 80.4564 76.4976 81.5398 76.1605 82.4375C75.8234 83.3314 75.3366 84.0152 74.7003 84.4886C74.0639 84.9583 73.2988 85.1932 72.4048 85.1932ZM72.4048 83.6761C73.1927 83.6761 73.8082 83.2917 74.2514 82.5227C74.6984 81.7538 74.9219 80.642 74.9219 79.1875C74.9219 78.2216 74.8196 77.4053 74.6151 76.7386C74.4143 76.0682 74.1245 75.5606 73.7457 75.2159C73.3707 74.8674 72.9238 74.6932 72.4048 74.6932C71.6207 74.6932 71.0052 75.0795 70.5582 75.8523C70.1113 76.625 69.8859 77.7367 69.8821 79.1875C69.8821 80.1572 69.9825 80.9773 70.1832 81.6477C70.3878 82.3144 70.6776 82.8201 71.0526 83.1648C71.4276 83.5057 71.8783 83.6761 72.4048 83.6761ZM82.733 85.1932C81.8352 85.1894 81.0682 84.9527 80.4318 84.483C79.7955 84.0133 79.3087 83.3295 78.9716 82.4318C78.6345 81.5341 78.4659 80.4527 78.4659 79.1875C78.4659 77.9261 78.6345 76.8485 78.9716 75.9545C79.3125 75.0606 79.8011 74.3788 80.4375 73.9091C81.0777 73.4394 81.8428 73.2045 82.733 73.2045C83.6231 73.2045 84.3864 73.4413 85.0227 73.9148C85.6591 74.3845 86.1458 75.0663 86.483 75.9602C86.8239 76.8504 86.9943 77.9261 86.9943 79.1875C86.9943 80.4564 86.8258 81.5398 86.4886 82.4375C86.1515 83.3314 85.6648 84.0152 85.0284 84.4886C84.392 84.9583 83.6269 85.1932 82.733 85.1932ZM82.733 83.6761C83.5208 83.6761 84.1364 83.2917 84.5795 82.5227C85.0265 81.7538 85.25 80.642 85.25 79.1875C85.25 78.2216 85.1477 77.4053 84.9432 76.7386C84.7424 76.0682 84.4527 75.5606 84.0739 75.2159C83.6989 74.8674 83.2519 74.6932 82.733 74.6932C81.9489 74.6932 81.3333 75.0795 80.8864 75.8523C80.4394 76.625 80.214 77.7367 80.2102 79.1875C80.2102 80.1572 80.3106 80.9773 80.5114 81.6477C80.7159 82.3144 81.0057 82.8201 81.3807 83.1648C81.7557 83.5057 82.2064 83.6761 82.733 83.6761Z"
		fill="black"
	/>
	<rect x="181" y="53" width="64" height="28" rx="14" fill="#52BD94" />
	<path
		d="M203.195 64.0291C203.146 63.5921 202.943 63.2536 202.586 63.0135C202.229 62.7704 201.78 62.6488 201.238 62.6488C200.85 62.6488 200.515 62.7103 200.232 62.8335C199.948 62.9535 199.728 63.1197 199.571 63.332C199.417 63.5413 199.341 63.7798 199.341 64.0476C199.341 64.2723 199.393 64.4661 199.498 64.6293C199.605 64.7924 199.745 64.9293 199.918 65.0401C200.093 65.1478 200.281 65.2386 200.481 65.3125C200.681 65.3833 200.873 65.4418 201.058 65.4879L201.981 65.728C202.283 65.8018 202.592 65.9019 202.909 66.0281C203.226 66.1542 203.52 66.3204 203.791 66.5266C204.062 66.7328 204.28 66.9883 204.446 67.293C204.616 67.5977 204.7 67.9624 204.7 68.3871C204.7 68.9226 204.562 69.3981 204.285 69.8136C204.011 70.229 203.612 70.5568 203.089 70.7969C202.569 71.0369 201.94 71.157 201.201 71.157C200.493 71.157 199.881 71.0446 199.364 70.82C198.847 70.5953 198.442 70.2768 198.15 69.8643C197.857 69.4489 197.696 68.9564 197.665 68.3871H199.096C199.124 68.7287 199.234 69.0134 199.428 69.2411C199.625 69.4658 199.876 69.6335 200.181 69.7443C200.489 69.852 200.826 69.9059 201.192 69.9059C201.595 69.9059 201.953 69.8428 202.267 69.7166C202.584 69.5874 202.834 69.4089 203.015 69.1811C203.197 68.9503 203.288 68.681 203.288 68.3732C203.288 68.0932 203.208 67.8639 203.048 67.6854C202.891 67.5069 202.677 67.3591 202.406 67.2422C202.138 67.1252 201.835 67.0221 201.496 66.9329L200.379 66.6282C199.622 66.422 199.022 66.1188 198.579 65.7188C198.139 65.3187 197.919 64.7893 197.919 64.1307C197.919 63.5859 198.066 63.1104 198.362 62.7042C198.657 62.2979 199.057 61.9825 199.562 61.7578C200.067 61.5301 200.636 61.4162 201.27 61.4162C201.91 61.4162 202.475 61.5285 202.964 61.7532C203.457 61.9779 203.845 62.2872 204.128 62.6811C204.411 63.072 204.559 63.5213 204.571 64.0291H203.195ZM209.35 71.1431C208.652 71.1431 208.05 70.9938 207.545 70.6953C207.044 70.3937 206.656 69.9705 206.382 69.4258C206.111 68.878 205.976 68.2363 205.976 67.5007C205.976 66.7744 206.111 66.1342 206.382 65.5803C206.656 65.0263 207.037 64.5939 207.527 64.283C208.019 63.9722 208.595 63.8168 209.253 63.8168C209.653 63.8168 210.041 63.8829 210.417 64.0153C210.792 64.1476 211.129 64.3554 211.428 64.6385C211.726 64.9216 211.962 65.2894 212.134 65.7418C212.306 66.1912 212.392 66.7375 212.392 67.3807V67.87H206.756V66.8359H211.04C211.04 66.4728 210.966 66.1512 210.818 65.8711C210.671 65.5879 210.463 65.3648 210.195 65.2017C209.93 65.0386 209.62 64.957 209.263 64.957C208.875 64.957 208.536 65.0524 208.247 65.2433C207.961 65.431 207.739 65.6772 207.582 65.9819C207.428 66.2835 207.351 66.6113 207.351 66.9652V67.7731C207.351 68.247 207.434 68.6502 207.601 68.9826C207.77 69.315 208.005 69.5689 208.307 69.7443C208.609 69.9167 208.961 70.0028 209.364 70.0028C209.626 70.0028 209.864 69.9659 210.08 69.892C210.295 69.8151 210.481 69.7012 210.638 69.5504C210.795 69.3996 210.915 69.2134 210.998 68.9918L212.305 69.2273C212.2 69.612 212.012 69.949 211.742 70.2383C211.474 70.5245 211.137 70.7476 210.731 70.9077C210.327 71.0646 209.867 71.1431 209.35 71.1431ZM215.304 66.7898V71H213.924V63.9091H215.249V65.0632H215.337C215.5 64.6877 215.755 64.3861 216.103 64.1584C216.454 63.9306 216.895 63.8168 217.428 63.8168C217.911 63.8168 218.334 63.9183 218.697 64.1214C219.061 64.3215 219.342 64.62 219.542 65.017C219.742 65.4141 219.842 65.9049 219.842 66.4897V71H218.462V66.6559C218.462 66.1419 218.328 65.7403 218.06 65.451C217.793 65.1586 217.425 65.0124 216.957 65.0124C216.637 65.0124 216.352 65.0817 216.103 65.2202C215.857 65.3587 215.661 65.5618 215.517 65.8295C215.375 66.0942 215.304 66.4143 215.304 66.7898ZM224.348 71.1385C223.776 71.1385 223.265 70.9923 222.815 70.6999C222.369 70.4045 222.018 69.9844 221.763 69.4396C221.51 68.8918 221.384 68.2347 221.384 67.4684C221.384 66.7021 221.512 66.0465 221.767 65.5018C222.026 64.957 222.38 64.54 222.829 64.2507C223.279 63.9614 223.788 63.8168 224.357 63.8168C224.797 63.8168 225.151 63.8906 225.419 64.0384C225.69 64.183 225.899 64.3523 226.047 64.5462C226.198 64.7401 226.315 64.9109 226.398 65.0586H226.481V61.5455H227.861V71H226.513V69.8967H226.398C226.315 70.0475 226.195 70.2198 226.038 70.4137C225.884 70.6076 225.671 70.7769 225.401 70.9215C225.13 71.0662 224.779 71.1385 224.348 71.1385ZM224.653 69.9613C225.05 69.9613 225.385 69.8567 225.659 69.6474C225.936 69.435 226.145 69.1411 226.287 68.7656C226.432 68.3902 226.504 67.9531 226.504 67.4545C226.504 66.9621 226.433 66.5312 226.292 66.1619C226.15 65.7926 225.942 65.5049 225.668 65.2987C225.394 65.0924 225.056 64.9893 224.653 64.9893C224.237 64.9893 223.891 65.0971 223.614 65.3125C223.337 65.5279 223.128 65.8219 222.986 66.1942C222.848 66.5666 222.778 66.9867 222.778 67.4545C222.778 67.9285 222.849 68.3548 222.991 68.7333C223.132 69.1119 223.342 69.4119 223.619 69.6335C223.899 69.852 224.243 69.9613 224.653 69.9613Z"
		fill="white"
	/>
	<rect x="18" y="93" width="227" height="1" fill="#EEEEEE" />
	<g clip-path="url(#clip3_0_24)">
		<rect
			x="560.658"
			y="290"
			width="146"
			height="188"
			rx="10"
			transform="rotate(15 560.658 290)"
			fill="#161C28"
		/>
		<circle
			cx="520.755"
			cy="453.755"
			r="79"
			transform="rotate(15 520.755 453.755)"
			fill="#232937"
		/>
		<circle
			cx="714.922"
			cy="336.947"
			r="79"
			transform="rotate(15 714.922 336.947)"
			fill="#232937"
		/>
		<circle
			opacity="0.5"
			cx="596.098"
			cy="324.152"
			r="14"
			transform="rotate(15 596.098 324.152)"
			fill="white"
		/>
		<circle
			opacity="0.5"
			cx="580.031"
			cy="319.847"
			r="14"
			transform="rotate(15 580.031 319.847)"
			fill="white"
		/>
		<path
			d="M558.452 368.089L557.431 367.816C557.449 367.506 557.412 367.22 557.321 366.957C557.232 366.695 557.101 366.46 556.928 366.252C556.758 366.041 556.554 365.863 556.317 365.717C556.079 365.571 555.821 365.461 555.541 365.386C555.03 365.249 554.533 365.254 554.05 365.401C553.569 365.549 553.139 365.841 552.761 366.278C552.385 366.715 552.099 367.299 551.903 368.029C551.708 368.759 551.663 369.407 551.77 369.974C551.88 370.542 552.106 371.01 552.448 371.378C552.794 371.747 553.221 372 553.732 372.136C554.012 372.211 554.291 372.245 554.57 372.237C554.848 372.23 555.113 372.179 555.365 372.084C555.62 371.988 555.852 371.848 556.059 371.666C556.271 371.481 556.445 371.252 556.584 370.977L557.604 371.251C557.412 371.661 557.169 372.009 556.875 372.295C556.58 372.581 556.25 372.802 555.885 372.96C555.52 373.115 555.132 373.204 554.723 373.227C554.317 373.251 553.901 373.205 553.476 373.091C552.757 372.899 552.165 372.552 551.699 372.051C551.233 371.549 550.927 370.932 550.779 370.198C550.632 369.465 550.677 368.653 550.915 367.764C551.154 366.875 551.52 366.15 552.015 365.588C552.509 365.026 553.083 364.645 553.737 364.444C554.391 364.243 555.078 364.238 555.797 364.431C556.222 364.545 556.605 364.714 556.945 364.937C557.288 365.161 557.578 365.433 557.816 365.753C558.054 366.07 558.23 366.426 558.342 366.82C558.454 367.212 558.491 367.635 558.452 368.089ZM558.416 374.292L560.111 367.969L561.049 368.221L560.793 369.176L560.859 369.193C561.058 368.911 561.335 368.713 561.689 368.599C562.043 368.485 562.409 368.479 562.788 368.581C562.859 368.6 562.948 368.625 563.054 368.656C563.161 368.688 563.24 368.714 563.294 368.734L563.029 369.722C562.998 369.705 562.926 369.672 562.813 369.624C562.703 369.574 562.583 369.532 562.454 369.497C562.147 369.415 561.855 369.406 561.579 369.47C561.306 369.532 561.07 369.657 560.87 369.845C560.673 370.03 560.536 370.266 560.46 370.551L559.388 374.552L558.416 374.292ZM565.152 376.238C564.543 376.074 564.054 375.799 563.684 375.412C563.318 375.022 563.08 374.553 562.972 374.003C562.866 373.452 562.901 372.852 563.074 372.204C563.248 371.557 563.519 371.018 563.887 370.587C564.259 370.154 564.695 369.856 565.194 369.693C565.697 369.528 566.234 369.522 566.805 369.675C567.134 369.763 567.445 369.905 567.736 370.101C568.028 370.297 568.272 370.553 568.47 370.871C568.668 371.186 568.791 371.566 568.839 372.011C568.887 372.456 568.833 372.974 568.675 373.564L568.564 373.975L563.691 372.67L563.916 371.83L567.801 372.871C567.897 372.514 567.911 372.177 567.843 371.859C567.778 371.541 567.637 371.267 567.42 371.035C567.205 370.804 566.922 370.641 566.571 370.547C566.184 370.444 565.824 370.45 565.49 370.566C565.159 370.681 564.877 370.87 564.645 371.134C564.412 371.398 564.249 371.705 564.156 372.053L564.006 372.613C563.878 373.09 563.852 373.517 563.927 373.893C564.007 374.267 564.171 374.581 564.421 374.833C564.672 375.082 564.994 375.26 565.386 375.365C565.641 375.433 565.881 375.459 566.106 375.443C566.335 375.425 566.544 375.363 566.734 375.258C566.924 375.151 567.09 374.998 567.231 374.801L568.099 375.316C567.915 375.607 567.674 375.843 567.376 376.022C567.079 376.198 566.741 376.307 566.362 376.35C565.984 376.39 565.58 376.352 565.152 376.238ZM571.104 377.85C570.703 377.743 570.36 377.57 570.074 377.331C569.788 377.09 569.588 376.8 569.473 376.46C569.359 376.118 569.357 375.741 569.468 375.329C569.565 374.967 569.715 374.693 569.918 374.506C570.121 374.316 570.36 374.189 570.633 374.124C570.907 374.059 571.196 374.033 571.501 374.048C571.809 374.06 572.115 374.086 572.419 374.126C572.817 374.18 573.138 374.226 573.384 374.265C573.632 374.303 573.82 374.304 573.947 374.271C574.076 374.238 574.162 374.143 574.204 373.987L574.213 373.954C574.321 373.548 574.295 373.202 574.133 372.918C573.974 372.634 573.67 372.432 573.223 372.312C572.759 372.188 572.369 372.192 572.051 372.324C571.733 372.457 571.49 372.624 571.321 372.826L570.487 372.249C570.755 371.909 571.054 371.669 571.386 371.529C571.721 371.386 572.064 371.316 572.413 371.319C572.766 371.319 573.101 371.362 573.42 371.447C573.623 371.501 573.849 371.589 574.099 371.709C574.353 371.827 574.584 371.993 574.791 372.207C575.001 372.422 575.148 372.701 575.233 373.045C575.317 373.388 575.292 373.811 575.158 374.313L574.041 378.478L573.07 378.218L573.299 377.362L573.25 377.349C573.147 377.468 572.998 377.586 572.803 377.701C572.607 377.816 572.367 377.894 572.082 377.936C571.798 377.977 571.472 377.949 571.104 377.85ZM571.486 377.017C571.87 377.12 572.214 377.131 572.518 377.051C572.825 376.971 573.077 376.83 573.276 376.628C573.477 376.426 573.613 376.193 573.683 375.929L573.921 375.04C573.867 375.079 573.764 375.1 573.613 375.103C573.466 375.105 573.298 375.097 573.108 375.078C572.923 375.058 572.742 375.036 572.566 375.012C572.393 374.987 572.253 374.967 572.145 374.953C571.884 374.918 571.633 374.908 571.394 374.923C571.158 374.937 570.953 374.998 570.78 375.107C570.61 375.215 570.492 375.392 570.426 375.639C570.335 375.976 570.392 376.265 570.595 376.505C570.802 376.743 571.099 376.913 571.486 377.017ZM578.167 379.725C577.64 379.584 577.21 379.326 576.878 378.952C576.547 378.575 576.333 378.111 576.236 377.562C576.14 377.01 576.181 376.399 576.361 375.729C576.539 375.065 576.807 374.519 577.166 374.092C577.524 373.665 577.942 373.372 578.42 373.215C578.897 373.057 579.402 373.05 579.934 373.193C580.346 373.303 580.653 373.459 580.855 373.66C581.06 373.859 581.203 374.062 581.283 374.269C581.366 374.473 581.429 374.64 581.471 374.769L581.553 374.791L582.387 371.679L583.358 371.94L581.1 380.37L580.161 380.118L580.421 379.147L580.306 379.116C580.204 379.212 580.063 379.33 579.885 379.47C579.707 379.608 579.477 379.713 579.196 379.784C578.916 379.853 578.573 379.834 578.167 379.725ZM578.532 378.887C578.922 378.992 579.278 378.979 579.602 378.848C579.926 378.714 580.206 378.485 580.443 378.16C580.681 377.832 580.864 377.43 580.992 376.952C581.118 376.48 581.16 376.049 581.118 375.658C581.076 375.265 580.947 374.933 580.731 374.664C580.516 374.391 580.211 374.202 579.816 374.096C579.404 373.986 579.033 374 578.702 374.137C578.374 374.273 578.094 374.502 577.86 374.825C577.63 375.146 577.456 375.528 577.337 375.973C577.216 376.423 577.175 376.85 577.214 377.255C577.256 377.657 577.384 378.003 577.597 378.293C577.814 378.58 578.126 378.779 578.532 378.887ZM583.014 380.882L584.708 374.56L585.679 374.82L583.985 381.143L583.014 380.882ZM585.484 373.639C585.295 373.588 585.149 373.48 585.046 373.314C584.946 373.149 584.92 372.976 584.969 372.795C585.017 372.614 585.126 372.477 585.295 372.384C585.467 372.291 585.648 372.271 585.837 372.321C586.026 372.372 586.171 372.48 586.271 372.645C586.373 372.811 586.4 372.984 586.352 373.165C586.303 373.346 586.193 373.483 586.022 373.575C585.852 373.668 585.673 373.689 585.484 373.639ZM590.208 376.034L589.987 376.857L586.711 375.979L586.931 375.156L590.208 376.034ZM588.292 373.897L589.264 374.157L587.649 380.183C587.575 380.458 587.56 380.674 587.603 380.833C587.649 380.989 587.729 381.108 587.843 381.188C587.96 381.267 588.09 381.325 588.233 381.363C588.34 381.392 588.429 381.41 588.501 381.417C588.573 381.422 588.631 381.426 588.674 381.429L588.638 382.354C588.565 382.361 588.467 382.361 588.342 382.354C588.217 382.35 588.064 382.324 587.883 382.275C587.608 382.202 587.355 382.071 587.123 381.882C586.894 381.694 586.726 381.456 586.617 381.169C586.512 380.882 586.508 380.554 586.607 380.186L588.292 373.897ZM601.703 379.679L600.682 379.405C600.701 379.095 600.664 378.809 600.573 378.546C600.484 378.284 600.353 378.049 600.179 377.841C600.009 377.631 599.806 377.452 599.568 377.307C599.331 377.161 599.072 377.05 598.792 376.975C598.282 376.838 597.785 376.843 597.301 376.99C596.821 377.138 596.391 377.43 596.012 377.867C595.636 378.304 595.35 378.888 595.155 379.618C594.959 380.348 594.915 380.996 595.022 381.563C595.131 382.131 595.358 382.599 595.7 382.967C596.045 383.336 596.473 383.589 596.983 383.726C597.263 383.801 597.543 383.834 597.821 383.827C598.1 383.819 598.365 383.768 598.617 383.673C598.872 383.577 599.103 383.438 599.311 383.255C599.522 383.071 599.697 382.841 599.835 382.566L600.856 382.84C600.664 383.25 600.421 383.598 600.126 383.884C599.832 384.17 599.502 384.392 599.136 384.549C598.771 384.705 598.384 384.794 597.975 384.816C597.569 384.84 597.153 384.795 596.728 384.681C596.009 384.488 595.416 384.141 594.951 383.64C594.485 383.138 594.178 382.521 594.031 381.787C593.883 381.054 593.929 380.242 594.167 379.353C594.405 378.464 594.772 377.739 595.266 377.177C595.761 376.616 596.335 376.234 596.989 376.033C597.643 375.832 598.329 375.828 599.048 376.02C599.473 376.134 599.856 376.303 600.196 376.526C600.539 376.751 600.83 377.022 601.067 377.342C601.306 377.659 601.481 378.015 601.593 378.409C601.706 378.801 601.742 379.224 601.703 379.679ZM601.668 385.881L603.362 379.558L604.301 379.81L604.045 380.765L604.111 380.782C604.31 380.501 604.586 380.303 604.94 380.189C605.294 380.075 605.661 380.068 606.039 380.17C606.111 380.189 606.2 380.214 606.306 380.246C606.412 380.277 606.492 380.303 606.545 380.323L606.281 381.311C606.25 381.294 606.178 381.261 606.064 381.213C605.954 381.163 605.835 381.121 605.706 381.086C605.398 381.004 605.107 380.995 604.831 381.059C604.558 381.121 604.322 381.246 604.121 381.434C603.925 381.619 603.788 381.855 603.711 382.14L602.639 386.141L601.668 385.881ZM607.802 387.683C607.401 387.576 607.058 387.403 606.771 387.164C606.486 386.923 606.286 386.633 606.171 386.293C606.057 385.951 606.055 385.574 606.165 385.162C606.262 384.8 606.412 384.526 606.615 384.339C606.819 384.149 607.058 384.022 607.331 383.957C607.604 383.892 607.893 383.867 608.198 383.881C608.507 383.893 608.813 383.919 609.117 383.959C609.514 384.013 609.836 384.059 610.081 384.098C610.33 384.136 610.518 384.137 610.644 384.104C610.774 384.071 610.86 383.976 610.901 383.82L610.91 383.787C611.019 383.381 610.992 383.035 610.831 382.751C610.671 382.467 610.368 382.265 609.921 382.145C609.457 382.021 609.066 382.025 608.748 382.157C608.43 382.29 608.187 382.457 608.018 382.659L607.185 382.083C607.452 381.743 607.752 381.502 608.084 381.362C608.419 381.219 608.761 381.149 609.11 381.152C609.463 381.152 609.799 381.195 610.117 381.28C610.32 381.335 610.547 381.422 610.797 381.542C611.051 381.66 611.281 381.826 611.489 382.04C611.699 382.255 611.846 382.535 611.93 382.878C612.015 383.221 611.99 383.644 611.855 384.146L610.739 388.311L609.768 388.051L609.997 387.195L609.948 387.182C609.845 387.301 609.696 387.419 609.5 387.534C609.305 387.649 609.065 387.727 608.78 387.769C608.495 387.81 608.169 387.782 607.802 387.683ZM608.184 386.85C608.568 386.953 608.912 386.964 609.216 386.884C609.522 386.804 609.775 386.663 609.973 386.461C610.174 386.259 610.31 386.026 610.381 385.763L610.619 384.873C610.565 384.912 610.462 384.933 610.311 384.936C610.164 384.938 609.995 384.93 609.806 384.911C609.62 384.891 609.439 384.869 609.263 384.845C609.091 384.82 608.951 384.8 608.843 384.786C608.581 384.751 608.331 384.741 608.092 384.756C607.856 384.77 607.651 384.831 607.478 384.94C607.308 385.048 607.19 385.225 607.123 385.472C607.033 385.81 607.089 386.098 607.293 386.338C607.5 386.576 607.797 386.747 608.184 386.85ZM614.864 389.558C614.337 389.417 613.908 389.159 613.576 388.785C613.244 388.408 613.03 387.944 612.933 387.395C612.837 386.843 612.879 386.232 613.058 385.562C613.236 384.898 613.505 384.352 613.863 383.925C614.222 383.498 614.64 383.205 615.117 383.048C615.595 382.891 616.1 382.883 616.632 383.026C617.044 383.136 617.35 383.292 617.552 383.493C617.758 383.692 617.901 383.895 617.98 384.102C618.064 384.307 618.127 384.473 618.168 384.602L618.251 384.624L619.085 381.512L620.056 381.773L617.797 390.203L616.859 389.951L617.119 388.98L617.004 388.949C616.902 389.045 616.761 389.163 616.582 389.304C616.404 389.441 616.175 389.546 615.894 389.618C615.613 389.687 615.27 389.667 614.864 389.558ZM615.23 388.721C615.619 388.825 615.976 388.812 616.299 388.681C616.623 388.547 616.904 388.318 617.141 387.993C617.379 387.665 617.561 387.263 617.689 386.786C617.816 386.314 617.858 385.882 617.815 385.491C617.774 385.098 617.645 384.766 617.429 384.497C617.214 384.224 616.909 384.035 616.513 383.929C616.102 383.819 615.731 383.833 615.4 383.971C615.072 384.106 614.791 384.336 614.558 384.658C614.328 384.979 614.153 385.362 614.034 385.806C613.914 386.256 613.873 386.683 613.911 387.088C613.953 387.49 614.081 387.836 614.295 388.126C614.512 388.414 614.824 388.612 615.23 388.721Z"
			fill="#E6E6E6"
		/>
		<circle
			cx="547.143"
			cy="386.8"
			r="2"
			transform="rotate(15 547.143 386.8)"
			fill="#D9D9D9"
		/>
		<circle
			cx="557.769"
			cy="389.647"
			r="2"
			transform="rotate(15 557.769 389.647)"
			fill="#D9D9D9"
		/>
		<circle
			cx="568.394"
			cy="392.494"
			r="2"
			transform="rotate(15 568.394 392.494)"
			fill="#D9D9D9"
		/>
		<circle
			cx="579.019"
			cy="395.341"
			r="2"
			transform="rotate(15 579.019 395.341)"
			fill="#D9D9D9"
		/>
		<path
			d="M596.636 395.168L594.377 403.598L593.356 403.324L595.328 395.964L595.279 395.951L592.855 396.766L593.133 395.729L595.615 394.894L596.636 395.168ZM596.802 404.247L597 403.506L600.599 401.206C601.021 400.937 601.373 400.699 601.655 400.492C601.937 400.282 602.161 400.074 602.325 399.868C602.492 399.66 602.611 399.427 602.68 399.169C602.759 398.873 602.756 398.597 602.672 398.342C602.59 398.088 602.443 397.869 602.23 397.686C602.018 397.502 601.759 397.37 601.454 397.288C601.131 397.201 600.83 397.193 600.552 397.263C600.278 397.33 600.044 397.466 599.848 397.669C599.655 397.874 599.515 398.136 599.429 398.457L598.458 398.197C598.59 397.703 598.82 397.3 599.148 396.988C599.476 396.676 599.864 396.468 600.312 396.364C600.763 396.262 601.234 396.276 601.726 396.408C602.219 396.54 602.629 396.762 602.955 397.073C603.28 397.383 603.504 397.745 603.626 398.157C603.748 398.569 603.751 398.992 603.635 399.425C603.552 399.735 603.414 400.024 603.222 400.29C603.034 400.554 602.754 400.83 602.382 401.119C602.014 401.406 601.519 401.744 600.897 402.133L598.461 403.651L598.444 403.717L602.362 404.767L602.12 405.672L596.802 404.247ZM606.637 407.006C606.094 406.861 605.634 406.637 605.259 406.337C604.886 406.037 604.62 405.688 604.459 405.289C604.302 404.888 604.271 404.463 604.368 404.016L605.405 404.294C605.354 404.571 605.385 404.831 605.496 405.073C605.609 405.312 605.784 405.52 606.021 405.699C606.259 405.877 606.539 406.009 606.863 406.096C607.225 406.193 607.563 406.216 607.877 406.165C608.191 406.114 608.457 405.997 608.677 405.814C608.896 405.632 609.046 405.393 609.125 405.096C609.208 404.786 609.205 404.493 609.114 404.216C609.024 403.936 608.849 403.689 608.589 403.475C608.329 403.261 607.985 403.097 607.557 402.982L606.881 402.801L607.124 401.896L607.799 402.076C608.134 402.166 608.444 402.184 608.729 402.131C609.016 402.079 609.261 401.962 609.462 401.781C609.666 401.6 609.808 401.362 609.888 401.065C609.964 400.78 609.968 400.515 609.898 400.27C609.828 400.025 609.694 399.812 609.495 399.632C609.299 399.453 609.046 399.322 608.736 399.239C608.445 399.161 608.156 399.141 607.87 399.179C607.586 399.215 607.337 399.311 607.122 399.468C606.907 399.623 606.755 399.838 606.666 400.114L605.678 399.849C605.813 399.412 606.05 399.061 606.389 398.796C606.728 398.528 607.124 398.355 607.578 398.276C608.034 398.198 608.505 398.224 608.991 398.355C609.512 398.494 609.931 398.72 610.247 399.031C610.565 399.34 610.778 399.692 610.886 400.089C610.994 400.486 610.995 400.883 610.889 401.281C610.762 401.756 610.528 402.127 610.189 402.395C609.852 402.663 609.454 402.805 608.994 402.82L608.976 402.886C609.485 403.116 609.84 403.454 610.042 403.899C610.244 404.342 610.273 404.83 610.13 405.366C610.007 405.824 609.772 406.202 609.424 406.5C609.08 406.796 608.666 406.991 608.182 407.085C607.698 407.179 607.183 407.152 606.637 407.006ZM611.466 406.323L611.69 405.484L616.966 400.615L617.575 400.778L617.226 402.079L616.815 401.969L612.829 405.648L612.811 405.713L617.8 407.05L617.557 407.956L611.466 406.323ZM614.97 409.115L615.502 407.131L615.607 406.74L617.229 400.686L618.2 400.946L615.942 409.376L614.97 409.115Z"
			fill="#F0F0EF"
		/>
		<path
			d="M621.622 471.067C621.002 470.901 620.519 470.591 620.173 470.136C619.828 469.679 619.626 469.097 619.569 468.391C619.512 467.681 619.606 466.868 619.852 465.952C620.096 465.041 620.419 464.294 620.823 463.711C621.23 463.126 621.697 462.721 622.224 462.498C622.755 462.273 623.328 462.242 623.943 462.407C624.557 462.572 625.037 462.884 625.381 463.344C625.729 463.802 625.932 464.385 625.989 465.095C626.049 465.802 625.957 466.611 625.713 467.522C625.467 468.439 625.143 469.19 624.739 469.776C624.335 470.359 623.87 470.762 623.342 470.986C622.816 471.206 622.242 471.233 621.622 471.067ZM621.865 470.162C622.479 470.326 623.036 470.158 623.535 469.656C624.034 469.155 624.431 468.355 624.725 467.258C624.921 466.528 625.009 465.885 624.99 465.33C624.974 464.776 624.856 464.325 624.638 463.978C624.422 463.632 624.11 463.405 623.704 463.296C623.095 463.133 622.539 463.306 622.035 463.815C621.531 464.321 621.133 465.122 620.839 466.217C620.644 466.946 620.555 467.587 620.571 468.139C620.588 468.69 620.705 469.138 620.922 469.481C621.142 469.825 621.456 470.052 621.865 470.162ZM631.121 464.33C631.466 464.426 631.794 464.584 632.106 464.806C632.417 465.028 632.675 465.326 632.88 465.702C633.086 466.075 633.207 466.541 633.242 467.1C633.278 467.66 633.192 468.326 632.984 469.1C632.784 469.849 632.534 470.496 632.235 471.039C631.94 471.581 631.606 472.015 631.233 472.341C630.863 472.669 630.461 472.884 630.028 472.989C629.597 473.094 629.144 473.083 628.669 472.956C628.197 472.829 627.801 472.623 627.48 472.337C627.163 472.049 626.932 471.706 626.785 471.308C626.643 470.908 626.598 470.477 626.651 470.015L627.655 470.284C627.642 470.695 627.736 471.063 627.938 471.388C628.142 471.71 628.467 471.931 628.912 472.05C629.562 472.224 630.151 472.078 630.679 471.61C631.21 471.144 631.615 470.392 631.893 469.355L631.827 469.337C631.611 469.526 631.375 469.676 631.119 469.787C630.863 469.898 630.594 469.964 630.312 469.985C630.03 470.007 629.743 469.979 629.452 469.901C628.969 469.771 628.558 469.533 628.219 469.186C627.883 468.838 627.65 468.421 627.521 467.936C627.396 467.45 627.406 466.935 627.551 466.391C627.69 465.876 627.931 465.434 628.276 465.068C628.625 464.7 629.044 464.444 629.532 464.302C630.023 464.16 630.553 464.169 631.121 464.33ZM630.879 465.236C630.533 465.143 630.198 465.146 629.875 465.245C629.555 465.342 629.275 465.514 629.035 465.761C628.799 466.007 628.633 466.305 628.539 466.656C628.445 467.007 628.436 467.348 628.513 467.677C628.593 468.004 628.744 468.289 628.968 468.531C629.194 468.771 629.481 468.938 629.827 469.03C630.087 469.1 630.344 469.115 630.596 469.073C630.849 469.029 631.083 468.941 631.298 468.807C631.517 468.672 631.705 468.503 631.862 468.301C632.019 468.096 632.132 467.869 632.199 467.619C632.287 467.29 632.29 466.96 632.208 466.629C632.129 466.299 631.975 466.008 631.745 465.755C631.519 465.503 631.23 465.33 630.879 465.236ZM638.742 466.072L633.321 475.437L632.432 475.199L637.853 465.834L638.742 466.072ZM637.512 475.202L637.711 474.461L641.31 472.16C641.732 471.891 642.084 471.653 642.366 471.446C642.648 471.237 642.872 471.029 643.036 470.823C643.203 470.615 643.322 470.382 643.391 470.124C643.47 469.827 643.467 469.552 643.383 469.297C643.301 469.042 643.154 468.824 642.941 468.64C642.729 468.457 642.47 468.324 642.165 468.243C641.842 468.156 641.541 468.147 641.263 468.217C640.989 468.285 640.754 468.42 640.559 468.624C640.366 468.828 640.226 469.091 640.14 469.412L639.169 469.151C639.301 468.658 639.531 468.254 639.859 467.942C640.187 467.63 640.575 467.422 641.023 467.319C641.474 467.216 641.945 467.231 642.437 467.362C642.93 467.495 643.34 467.716 643.666 468.027C643.991 468.338 644.215 468.699 644.337 469.111C644.459 469.523 644.462 469.946 644.346 470.38C644.263 470.69 644.125 470.978 643.933 471.244C643.745 471.508 643.465 471.785 643.093 472.074C642.725 472.36 642.23 472.698 641.608 473.087L639.172 474.605L639.155 474.671L643.073 475.721L642.831 476.627L637.512 475.202ZM647.134 477.903C646.651 477.774 646.242 477.561 645.906 477.265C645.571 476.97 645.331 476.623 645.188 476.226C645.044 475.829 645.019 475.413 645.112 474.979L646.1 475.244C646.036 475.635 646.124 475.997 646.365 476.329C646.608 476.659 646.946 476.882 647.377 476.998C647.722 477.09 648.051 477.092 648.364 477.002C648.679 476.913 648.951 476.747 649.18 476.506C649.413 476.263 649.578 475.961 649.674 475.602C649.773 475.234 649.78 474.884 649.695 474.553C649.614 474.219 649.456 473.931 649.221 473.689C648.986 473.446 648.689 473.276 648.33 473.177C648.073 473.105 647.797 473.074 647.503 473.083C647.211 473.09 646.959 473.133 646.75 473.212L645.826 472.841L647.448 468.829L651.828 470.002L651.585 470.908L648.061 469.964L647.099 472.37L647.148 472.384C647.358 472.293 647.605 472.237 647.89 472.216C648.175 472.196 648.459 472.223 648.742 472.299C649.257 472.437 649.684 472.684 650.021 473.039C650.362 473.392 650.591 473.812 650.707 474.299C650.826 474.787 650.813 475.304 650.667 475.85C650.522 476.388 650.273 476.836 649.918 477.193C649.567 477.549 649.149 477.793 648.663 477.925C648.179 478.054 647.669 478.047 647.134 477.903Z"
			fill="#F8F8FA"
		/>
		<rect
			opacity="0.2"
			x="533.307"
			y="430.715"
			width="34"
			height="22"
			rx="4"
			transform="rotate(15 533.307 430.715)"
			fill="white"
		/>
	</g>
	<rect x="104" y="421" width="138" height="70" rx="10" fill="white" />
	<path
		d="M121.71 474.454V459.909H122.642V474.454H121.71ZM124.625 464.42C124.564 463.882 124.314 463.466 123.875 463.17C123.436 462.871 122.883 462.721 122.216 462.721C121.739 462.721 121.326 462.797 120.977 462.949C120.629 463.096 120.358 463.301 120.165 463.562C119.975 463.82 119.881 464.113 119.881 464.443C119.881 464.719 119.945 464.958 120.074 465.159C120.206 465.36 120.379 465.528 120.591 465.665C120.807 465.797 121.038 465.909 121.284 466C121.53 466.087 121.767 466.159 121.994 466.216L123.131 466.511C123.502 466.602 123.883 466.725 124.273 466.88C124.663 467.036 125.025 467.24 125.358 467.494C125.691 467.748 125.96 468.062 126.165 468.437C126.373 468.812 126.477 469.261 126.477 469.784C126.477 470.443 126.307 471.028 125.966 471.54C125.629 472.051 125.138 472.454 124.494 472.75C123.854 473.045 123.08 473.193 122.17 473.193C121.299 473.193 120.545 473.055 119.909 472.778C119.273 472.502 118.775 472.11 118.415 471.602C118.055 471.091 117.856 470.485 117.818 469.784H119.58C119.614 470.204 119.75 470.555 119.989 470.835C120.231 471.111 120.54 471.318 120.915 471.454C121.294 471.587 121.708 471.653 122.159 471.653C122.655 471.653 123.097 471.576 123.483 471.42C123.873 471.261 124.18 471.041 124.403 470.761C124.627 470.477 124.739 470.146 124.739 469.767C124.739 469.422 124.64 469.14 124.443 468.92C124.25 468.701 123.987 468.519 123.653 468.375C123.324 468.231 122.951 468.104 122.534 467.994L121.159 467.619C120.227 467.365 119.489 466.992 118.943 466.5C118.402 466.007 118.131 465.356 118.131 464.545C118.131 463.875 118.313 463.29 118.676 462.79C119.04 462.29 119.532 461.901 120.153 461.625C120.775 461.344 121.475 461.204 122.256 461.204C123.044 461.204 123.739 461.343 124.341 461.619C124.947 461.896 125.424 462.276 125.773 462.761C126.121 463.242 126.303 463.795 126.318 464.42H124.625ZM128.416 473V471.727L132.354 467.647C132.774 467.204 133.121 466.816 133.393 466.483C133.67 466.146 133.876 465.826 134.013 465.522C134.149 465.219 134.217 464.897 134.217 464.557C134.217 464.17 134.126 463.837 133.945 463.557C133.763 463.272 133.515 463.055 133.2 462.903C132.886 462.748 132.532 462.67 132.138 462.67C131.721 462.67 131.357 462.755 131.047 462.926C130.736 463.096 130.498 463.337 130.331 463.647C130.164 463.958 130.081 464.322 130.081 464.738H128.405C128.405 464.03 128.568 463.411 128.893 462.88C129.219 462.35 129.666 461.939 130.234 461.647C130.803 461.352 131.448 461.204 132.172 461.204C132.903 461.204 133.547 461.35 134.104 461.642C134.664 461.93 135.102 462.324 135.416 462.824C135.731 463.32 135.888 463.88 135.888 464.505C135.888 464.937 135.806 465.36 135.643 465.772C135.484 466.185 135.206 466.646 134.808 467.153C134.411 467.657 133.857 468.269 133.149 468.988L130.837 471.409V471.494H136.075V473H128.416ZM137.734 470.727V469.307L142.763 461.363H143.882V463.454H143.172L139.575 469.147V469.238H146.467V470.727H137.734ZM143.251 473V470.295L143.263 469.647V461.363H144.928V473H143.251ZM152.288 473.159C151.576 473.159 150.936 473.022 150.368 472.75C149.804 472.473 149.353 472.094 149.016 471.613C148.679 471.132 148.499 470.583 148.476 469.966H150.18C150.222 470.466 150.444 470.877 150.845 471.199C151.247 471.521 151.728 471.682 152.288 471.682C152.735 471.682 153.131 471.579 153.476 471.375C153.824 471.166 154.097 470.88 154.294 470.517C154.495 470.153 154.595 469.738 154.595 469.272C154.595 468.799 154.493 468.377 154.288 468.005C154.084 467.634 153.802 467.343 153.442 467.13C153.086 466.918 152.677 466.81 152.214 466.807C151.862 466.807 151.508 466.867 151.152 466.988C150.796 467.11 150.508 467.269 150.288 467.466L148.68 467.227L149.334 461.363H155.732V462.869H150.794L150.425 466.125H150.493C150.72 465.905 151.021 465.721 151.396 465.574C151.775 465.426 152.18 465.352 152.612 465.352C153.321 465.352 153.951 465.521 154.504 465.858C155.061 466.195 155.499 466.655 155.817 467.238C156.139 467.818 156.298 468.485 156.294 469.238C156.298 469.992 156.127 470.665 155.783 471.255C155.442 471.846 154.968 472.312 154.362 472.653C153.76 472.99 153.069 473.159 152.288 473.159ZM159.089 473.108C158.779 473.108 158.512 472.998 158.288 472.778C158.065 472.555 157.953 472.286 157.953 471.971C157.953 471.661 158.065 471.396 158.288 471.176C158.512 470.952 158.779 470.841 159.089 470.841C159.4 470.841 159.667 470.952 159.891 471.176C160.114 471.396 160.226 471.661 160.226 471.971C160.226 472.18 160.173 472.371 160.067 472.545C159.964 472.716 159.828 472.852 159.658 472.954C159.487 473.057 159.298 473.108 159.089 473.108ZM166.108 473.193C165.21 473.189 164.443 472.952 163.807 472.483C163.17 472.013 162.684 471.329 162.347 470.432C162.009 469.534 161.841 468.452 161.841 467.187C161.841 465.926 162.009 464.848 162.347 463.954C162.688 463.06 163.176 462.379 163.812 461.909C164.453 461.439 165.218 461.204 166.108 461.204C166.998 461.204 167.761 461.441 168.398 461.915C169.034 462.384 169.521 463.066 169.858 463.96C170.199 464.85 170.369 465.926 170.369 467.187C170.369 468.456 170.201 469.54 169.864 470.437C169.527 471.331 169.04 472.015 168.403 472.488C167.767 472.958 167.002 473.193 166.108 473.193ZM166.108 471.676C166.896 471.676 167.511 471.291 167.955 470.522C168.402 469.754 168.625 468.642 168.625 467.187C168.625 466.221 168.523 465.405 168.318 464.738C168.117 464.068 167.828 463.56 167.449 463.216C167.074 462.867 166.627 462.693 166.108 462.693C165.324 462.693 164.708 463.079 164.261 463.852C163.814 464.625 163.589 465.736 163.585 467.187C163.585 468.157 163.686 468.977 163.886 469.647C164.091 470.314 164.381 470.82 164.756 471.165C165.131 471.505 165.581 471.676 166.108 471.676ZM176.436 473.193C175.538 473.189 174.771 472.952 174.135 472.483C173.499 472.013 173.012 471.329 172.675 470.432C172.338 469.534 172.169 468.452 172.169 467.187C172.169 465.926 172.338 464.848 172.675 463.954C173.016 463.06 173.504 462.379 174.141 461.909C174.781 461.439 175.546 461.204 176.436 461.204C177.326 461.204 178.089 461.441 178.726 461.915C179.362 462.384 179.849 463.066 180.186 463.96C180.527 464.85 180.697 465.926 180.697 467.187C180.697 468.456 180.529 469.54 180.192 470.437C179.855 471.331 179.368 472.015 178.732 472.488C178.095 472.958 177.33 473.193 176.436 473.193ZM176.436 471.676C177.224 471.676 177.839 471.291 178.283 470.522C178.73 469.754 178.953 468.642 178.953 467.187C178.953 466.221 178.851 465.405 178.646 464.738C178.446 464.068 178.156 463.56 177.777 463.216C177.402 462.867 176.955 462.693 176.436 462.693C175.652 462.693 175.036 463.079 174.589 463.852C174.143 464.625 173.917 465.736 173.913 467.187C173.913 468.157 174.014 468.977 174.214 469.647C174.419 470.314 174.709 470.82 175.084 471.165C175.459 471.505 175.91 471.676 176.436 471.676Z"
		fill="black"
	/>
	<path
		d="M116.58 438.21V437.272H123.125V438.21H120.381V446H119.324V438.21H116.58ZM126.33 446.136C125.739 446.136 125.22 445.995 124.774 445.714C124.331 445.433 123.984 445.04 123.734 444.534C123.487 444.028 123.364 443.437 123.364 442.761C123.364 442.079 123.487 441.484 123.734 440.976C123.984 440.467 124.331 440.072 124.774 439.791C125.22 439.51 125.739 439.369 126.33 439.369C126.92 439.369 127.438 439.51 127.881 439.791C128.327 440.072 128.673 440.467 128.92 440.976C129.17 441.484 129.295 442.079 129.295 442.761C129.295 443.437 129.17 444.028 128.92 444.534C128.673 445.04 128.327 445.433 127.881 445.714C127.438 445.995 126.92 446.136 126.33 446.136ZM126.33 445.233C126.778 445.233 127.148 445.118 127.438 444.888C127.727 444.657 127.942 444.355 128.081 443.98C128.22 443.605 128.29 443.199 128.29 442.761C128.29 442.324 128.22 441.916 128.081 441.538C127.942 441.16 127.727 440.855 127.438 440.622C127.148 440.389 126.778 440.272 126.33 440.272C125.881 440.272 125.511 440.389 125.222 440.622C124.932 440.855 124.717 441.16 124.578 441.538C124.439 441.916 124.369 442.324 124.369 442.761C124.369 443.199 124.439 443.605 124.578 443.98C124.717 444.355 124.932 444.657 125.222 444.888C125.511 445.118 125.881 445.233 126.33 445.233ZM133.677 439.454V440.307H130.285V439.454H133.677ZM131.274 437.886H132.279V444.125C132.279 444.409 132.321 444.622 132.403 444.764C132.488 444.903 132.596 444.997 132.727 445.045C132.86 445.091 133.001 445.113 133.149 445.113C133.26 445.113 133.35 445.108 133.422 445.096C133.493 445.082 133.549 445.071 133.592 445.062L133.797 445.966C133.728 445.991 133.633 446.017 133.511 446.042C133.389 446.071 133.234 446.085 133.047 446.085C132.762 446.085 132.484 446.024 132.211 445.902C131.941 445.78 131.717 445.594 131.538 445.344C131.362 445.094 131.274 444.778 131.274 444.397V437.886ZM137.116 446.153C136.701 446.153 136.325 446.075 135.987 445.919C135.649 445.76 135.38 445.531 135.181 445.233C134.983 444.932 134.883 444.568 134.883 444.142C134.883 443.767 134.957 443.463 135.105 443.23C135.252 442.994 135.45 442.809 135.697 442.676C135.944 442.542 136.217 442.443 136.515 442.378C136.816 442.309 137.119 442.255 137.423 442.216C137.821 442.165 138.143 442.126 138.39 442.101C138.64 442.072 138.822 442.025 138.936 441.96C139.052 441.895 139.11 441.781 139.11 441.619V441.585C139.11 441.165 138.995 440.838 138.765 440.605C138.538 440.372 138.193 440.255 137.73 440.255C137.25 440.255 136.873 440.361 136.6 440.571C136.328 440.781 136.136 441.005 136.025 441.244L135.071 440.903C135.241 440.505 135.468 440.196 135.752 439.974C136.039 439.75 136.352 439.594 136.69 439.505C137.031 439.415 137.366 439.369 137.696 439.369C137.906 439.369 138.147 439.395 138.42 439.446C138.696 439.494 138.961 439.595 139.217 439.748C139.475 439.902 139.69 440.133 139.86 440.443C140.031 440.753 140.116 441.167 140.116 441.687V446H139.11V445.113H139.059C138.991 445.255 138.877 445.407 138.718 445.569C138.559 445.731 138.348 445.869 138.083 445.983C137.819 446.096 137.497 446.153 137.116 446.153ZM137.27 445.25C137.667 445.25 138.002 445.172 138.275 445.015C138.551 444.859 138.758 444.657 138.897 444.41C139.039 444.163 139.11 443.903 139.11 443.63V442.71C139.068 442.761 138.974 442.808 138.829 442.851C138.687 442.89 138.522 442.926 138.335 442.957C138.15 442.986 137.97 443.011 137.794 443.034C137.62 443.054 137.48 443.071 137.372 443.085C137.11 443.119 136.866 443.174 136.639 443.251C136.414 443.325 136.233 443.437 136.093 443.588C135.957 443.736 135.889 443.937 135.889 444.193C135.889 444.542 136.018 444.807 136.277 444.986C136.538 445.162 136.869 445.25 137.27 445.25ZM142.957 437.272V446H141.952V437.272H142.957ZM149.368 437.272V446H148.311V437.272H149.368ZM152.356 442.062V446H151.35V439.454H152.322V440.477H152.407C152.56 440.145 152.793 439.878 153.106 439.676C153.418 439.471 153.822 439.369 154.316 439.369C154.759 439.369 155.147 439.46 155.479 439.642C155.812 439.821 156.07 440.094 156.255 440.46C156.44 440.824 156.532 441.284 156.532 441.841V446H155.526V441.909C155.526 441.395 155.393 440.994 155.126 440.707C154.859 440.417 154.492 440.272 154.026 440.272C153.705 440.272 153.418 440.342 153.165 440.481C152.915 440.62 152.718 440.824 152.573 441.091C152.428 441.358 152.356 441.682 152.356 442.062ZM161.029 446.136C160.415 446.136 159.887 445.991 159.444 445.701C159 445.412 158.659 445.013 158.421 444.504C158.182 443.995 158.063 443.415 158.063 442.761C158.063 442.096 158.185 441.51 158.429 441.001C158.676 440.49 159.02 440.091 159.461 439.804C159.904 439.514 160.421 439.369 161.012 439.369C161.472 439.369 161.887 439.454 162.256 439.625C162.625 439.795 162.928 440.034 163.164 440.341C163.4 440.647 163.546 441.005 163.603 441.415H162.597C162.52 441.116 162.35 440.852 162.086 440.622C161.824 440.389 161.472 440.272 161.029 440.272C160.637 440.272 160.293 440.375 159.998 440.579C159.705 440.781 159.476 441.067 159.311 441.436C159.15 441.802 159.069 442.233 159.069 442.727C159.069 443.233 159.148 443.673 159.307 444.048C159.469 444.423 159.696 444.714 159.989 444.922C160.284 445.129 160.631 445.233 161.029 445.233C161.29 445.233 161.527 445.187 161.74 445.096C161.953 445.005 162.134 444.875 162.282 444.704C162.429 444.534 162.534 444.329 162.597 444.091H163.603C163.546 444.477 163.405 444.825 163.181 445.135C162.959 445.442 162.665 445.686 162.299 445.868C161.935 446.047 161.512 446.136 161.029 446.136ZM167.732 446.136C167.141 446.136 166.623 445.995 166.176 445.714C165.733 445.433 165.387 445.04 165.137 444.534C164.89 444.028 164.766 443.437 164.766 442.761C164.766 442.079 164.89 441.484 165.137 440.976C165.387 440.467 165.733 440.072 166.176 439.791C166.623 439.51 167.141 439.369 167.732 439.369C168.323 439.369 168.84 439.51 169.283 439.791C169.729 440.072 170.076 440.467 170.323 440.976C170.573 441.484 170.698 442.079 170.698 442.761C170.698 443.437 170.573 444.028 170.323 444.534C170.076 445.04 169.729 445.433 169.283 445.714C168.84 445.995 168.323 446.136 167.732 446.136ZM167.732 445.233C168.181 445.233 168.55 445.118 168.84 444.888C169.13 444.657 169.344 444.355 169.483 443.98C169.623 443.605 169.692 443.199 169.692 442.761C169.692 442.324 169.623 441.916 169.483 441.538C169.344 441.16 169.13 440.855 168.84 440.622C168.55 440.389 168.181 440.272 167.732 440.272C167.283 440.272 166.914 440.389 166.624 440.622C166.334 440.855 166.12 441.16 165.98 441.538C165.841 441.916 165.772 442.324 165.772 442.761C165.772 443.199 165.841 443.605 165.98 443.98C166.12 444.355 166.334 444.657 166.624 444.888C166.914 445.118 167.283 445.233 167.732 445.233ZM172.233 446V439.454H173.205V440.477H173.29C173.426 440.128 173.646 439.856 173.95 439.663C174.254 439.467 174.619 439.369 175.045 439.369C175.477 439.369 175.837 439.467 176.124 439.663C176.413 439.856 176.639 440.128 176.801 440.477H176.869C177.037 440.139 177.288 439.87 177.624 439.672C177.959 439.47 178.361 439.369 178.83 439.369C179.415 439.369 179.893 439.552 180.266 439.919C180.638 440.282 180.824 440.849 180.824 441.619V446H179.818V441.619C179.818 441.136 179.686 440.791 179.422 440.584C179.158 440.376 178.847 440.272 178.489 440.272C178.028 440.272 177.672 440.412 177.419 440.69C177.166 440.966 177.04 441.315 177.04 441.738V446H176.017V441.517C176.017 441.145 175.896 440.845 175.655 440.618C175.413 440.388 175.102 440.272 174.722 440.272C174.46 440.272 174.216 440.342 173.989 440.481C173.764 440.62 173.582 440.814 173.443 441.061C173.307 441.305 173.239 441.588 173.239 441.909V446H172.233ZM185.407 446.136C184.776 446.136 184.232 445.997 183.775 445.719C183.32 445.437 182.969 445.045 182.722 444.542C182.478 444.037 182.356 443.449 182.356 442.778C182.356 442.108 182.478 441.517 182.722 441.005C182.969 440.491 183.313 440.091 183.754 439.804C184.197 439.514 184.714 439.369 185.305 439.369C185.646 439.369 185.982 439.426 186.315 439.54C186.647 439.653 186.95 439.838 187.222 440.094C187.495 440.346 187.712 440.682 187.874 441.099C188.036 441.517 188.117 442.031 188.117 442.642V443.068H183.072V442.199H187.094C187.094 441.829 187.021 441.5 186.873 441.21C186.728 440.92 186.521 440.692 186.251 440.524C185.984 440.356 185.668 440.272 185.305 440.272C184.904 440.272 184.558 440.372 184.265 440.571C183.975 440.767 183.752 441.022 183.596 441.338C183.44 441.653 183.362 441.991 183.362 442.352V442.932C183.362 443.426 183.447 443.845 183.617 444.189C183.79 444.53 184.031 444.79 184.337 444.969C184.644 445.145 185.001 445.233 185.407 445.233C185.671 445.233 185.91 445.196 186.123 445.122C186.339 445.045 186.525 444.932 186.681 444.781C186.837 444.628 186.958 444.437 187.043 444.21L188.015 444.483C187.913 444.812 187.741 445.102 187.499 445.352C187.258 445.599 186.96 445.792 186.604 445.932C186.249 446.068 185.85 446.136 185.407 446.136Z"
		fill="#A9A7B6"
	/>
	<path
		d="M225 473.666V465.333"
		stroke="#52BD94"
		stroke-width="1.66667"
		stroke-linecap="round"
		stroke-linejoin="round"
	/>
	<path
		d="M220 473.666V460.333"
		stroke="#52BD94"
		stroke-width="1.66667"
		stroke-linecap="round"
		stroke-linejoin="round"
	/>
	<path
		d="M215 473.667V468.667"
		stroke="#52BD94"
		stroke-width="1.66667"
		stroke-linecap="round"
		stroke-linejoin="round"
	/>
	<path d="M135 196.733L139.174 201L147 193" stroke="white" stroke-width="2" />
	<defs>
		<clipPath id="clip0_0_24">
			<rect x="180" width="410" height="526" rx="10" fill="white" />
		</clipPath>
		<clipPath id="clip1_0_24">
			<rect
				width="20"
				height="20"
				fill="white"
				transform="translate(511.424 522.247) rotate(15)"
			/>
		</clipPath>
		<clipPath id="clip2_0_24">
			<rect
				width="20"
				height="20"
				fill="white"
				transform="translate(587.929 43.7524) rotate(15)"
			/>
		</clipPath>
		<clipPath id="clip3_0_24">
			<rect
				x="560.658"
				y="290"
				width="146"
				height="188"
				rx="10"
				transform="rotate(15 560.658 290)"
				fill="white"
			/>
		</clipPath>
	</defs>
</svg>
