<svg
	width="154"
	height="36"
	viewBox="0 0 154 36"
	fill="none"
	xmlns="http://www.w3.org/2000/svg"
>
	<path
		fill-rule="evenodd"
		clip-rule="evenodd"
		d="M17.0711 4.41723C18.9464 5.32466 20 6.5554 20 7.83871H10L0 7.83871C0 6.5554 1.05357 5.32466 2.92893 4.41722C4.8043 3.50979 7.34784 3 10 3C12.6522 3 15.1957 3.50979 17.0711 4.41723ZM2.92893 31.5828C1.05357 30.6753 0 29.4446 0 28.1613H10L20 28.1613C20 29.4446 18.9464 30.6753 17.0711 31.5828C15.1957 32.4902 12.6522 33 10 33C7.34783 33 4.8043 32.4902 2.92893 31.5828ZM23 20.4194V24.2903H17V20.4194H23ZM6 11.7097H0V15.5806H6V11.7097ZM11 11.7097H23V15.5806H11V11.7097ZM12 20.4194H0V24.2903H12V20.4194Z"
		fill="#A6A6A6"
	/>
	<path
		d="M41.054 29.2876C39.7685 29.2876 38.6179 28.9574 37.6023 28.2969C36.5866 27.6364 35.7841 26.6776 35.1946 25.4205C34.6051 24.1634 34.3104 22.6364 34.3104 20.8395C34.3104 19.0213 34.6087 17.4872 35.2053 16.2372C35.8089 14.9801 36.6222 14.032 37.6449 13.3928C38.6676 12.7464 39.8075 12.4233 41.0646 12.4233C42.0234 12.4233 42.8118 12.5866 43.4297 12.9134C44.0476 13.233 44.5376 13.62 44.8999 14.0746C45.2621 14.522 45.5426 14.9446 45.7415 15.3423H45.9013V7.18182H49.7685V29H45.9759V26.4219H45.7415C45.5426 26.8196 45.255 27.2422 44.8786 27.6896C44.5021 28.13 44.005 28.5064 43.3871 28.8189C42.7692 29.1314 41.9915 29.2876 41.054 29.2876ZM42.13 26.1236C42.9467 26.1236 43.6428 25.9034 44.218 25.4631C44.7933 25.0156 45.2301 24.3942 45.5284 23.5987C45.8267 22.8033 45.9759 21.8764 45.9759 20.8182C45.9759 19.7599 45.8267 18.8402 45.5284 18.0589C45.2372 17.2777 44.804 16.6705 44.2287 16.2372C43.6605 15.804 42.9609 15.5874 42.13 15.5874C41.2706 15.5874 40.5533 15.8111 39.978 16.2585C39.4027 16.706 38.9695 17.3239 38.6783 18.1122C38.3871 18.9006 38.2415 19.8026 38.2415 20.8182C38.2415 21.8409 38.3871 22.7536 38.6783 23.5561C38.9766 24.3516 39.4134 24.9801 39.9886 25.4418C40.571 25.8963 41.2848 26.1236 42.13 26.1236ZM61.1223 29.3196C59.4817 29.3196 58.0648 28.9787 56.8716 28.2969C55.6855 27.608 54.7729 26.6349 54.1337 25.3778C53.4945 24.1136 53.1749 22.6257 53.1749 20.9141C53.1749 19.2308 53.4945 17.7536 54.1337 16.4822C54.78 15.2038 55.682 14.2095 56.8397 13.4993C57.9973 12.782 59.3574 12.4233 60.9199 12.4233C61.9284 12.4233 62.8801 12.5866 63.775 12.9134C64.677 13.233 65.4725 13.7301 66.1614 14.4048C66.8574 15.0795 67.4043 15.9389 67.802 16.983C68.1998 18.0199 68.3986 19.2557 68.3986 20.6903V21.8729H54.986V19.2734H64.7019C64.6948 18.5348 64.535 17.8778 64.2225 17.3026C63.91 16.7202 63.4732 16.2621 62.9121 15.9283C62.3581 15.5945 61.7118 15.4276 60.9732 15.4276C60.1848 15.4276 59.4924 15.6193 58.8958 16.0028C58.2992 16.3793 57.834 16.8764 57.5002 17.4943C57.1735 18.1051 57.0066 18.7763 56.9995 19.5078V21.777C56.9995 22.7287 57.1735 23.5455 57.5215 24.2273C57.8695 24.902 58.356 25.4205 58.981 25.7827C59.606 26.1378 60.3375 26.3153 61.1756 26.3153C61.7367 26.3153 62.2445 26.2372 62.699 26.081C63.1536 25.9176 63.5478 25.6797 63.8816 25.3672C64.2154 25.0547 64.4675 24.6676 64.638 24.206L68.2388 24.6108C68.0115 25.5625 67.5783 26.3935 66.9391 27.1037C66.307 27.8068 65.4973 28.3537 64.5101 28.7443C63.5229 29.1278 62.3936 29.3196 61.1223 29.3196ZM84.5945 16.9616L81.0788 17.3452C80.9794 16.9901 80.8054 16.6562 80.5568 16.3438C80.3153 16.0312 79.9886 15.7791 79.5767 15.5874C79.1648 15.3956 78.6605 15.2997 78.0639 15.2997C77.2614 15.2997 76.5866 15.4737 76.0398 15.8217C75.5 16.1697 75.2337 16.6207 75.2408 17.1747C75.2337 17.6506 75.4077 18.0376 75.7628 18.3359C76.125 18.6342 76.7216 18.8793 77.5526 19.071L80.3438 19.6676C81.892 20.0014 83.0426 20.5305 83.7955 21.255C84.5554 21.9794 84.9389 22.9276 84.946 24.0994C84.9389 25.1293 84.6371 26.0384 84.0405 26.8267C83.451 27.608 82.6307 28.2187 81.5795 28.6591C80.5284 29.0994 79.321 29.3196 77.9574 29.3196C75.9545 29.3196 74.3423 28.9006 73.1207 28.0625C71.8991 27.2173 71.1712 26.0419 70.9368 24.5362L74.6974 24.174C74.8679 24.9126 75.2301 25.4702 75.7841 25.8466C76.3381 26.223 77.0589 26.4112 77.9467 26.4112C78.8629 26.4112 79.598 26.223 80.152 25.8466C80.7131 25.4702 80.9936 25.005 80.9936 24.451C80.9936 23.9822 80.8125 23.5952 80.4503 23.2898C80.0952 22.9844 79.5412 22.75 78.7884 22.5866L75.9972 22.0007C74.4276 21.674 73.2663 21.1236 72.5135 20.3494C71.7607 19.5682 71.3878 18.581 71.3949 17.3878C71.3878 16.3793 71.6612 15.5057 72.2152 14.767C72.7763 14.0213 73.554 13.446 74.5483 13.0412C75.5497 12.6293 76.7038 12.4233 78.0107 12.4233C79.9283 12.4233 81.4375 12.8317 82.5384 13.6484C83.6463 14.4652 84.3317 15.5696 84.5945 16.9616ZM95.2638 29.3196C93.6303 29.3196 92.2276 28.9609 91.0558 28.2436C89.891 27.5263 88.9925 26.5355 88.3604 25.2713C87.7354 24 87.4229 22.5369 87.4229 20.8821C87.4229 19.2202 87.7425 17.7536 88.3817 16.4822C89.021 15.2038 89.9229 14.2095 91.0877 13.4993C92.2596 12.782 93.6445 12.4233 95.2425 12.4233C96.5707 12.4233 97.7461 12.6683 98.7688 13.1584C99.7987 13.6413 100.619 14.3267 101.23 15.2145C101.841 16.0952 102.189 17.125 102.274 18.304H98.5877C98.4386 17.5156 98.0835 16.8587 97.5224 16.3331C96.9684 15.8004 96.2262 15.5341 95.2958 15.5341C94.5075 15.5341 93.815 15.7472 93.2184 16.1733C92.6218 16.5923 92.1566 17.196 91.8228 17.9844C91.4961 18.7727 91.3327 19.7173 91.3327 20.8182C91.3327 21.9332 91.4961 22.892 91.8228 23.6946C92.1495 24.4901 92.6076 25.1044 93.1971 25.5376C93.7937 25.9638 94.4933 26.1768 95.2958 26.1768C95.864 26.1768 96.3718 26.0703 96.8192 25.8572C97.2738 25.6371 97.6538 25.321 97.9592 24.9091C98.2646 24.4972 98.4741 23.9964 98.5877 23.407H102.274C102.181 24.5646 101.841 25.5909 101.251 26.4858C100.662 27.3736 99.859 28.0696 98.8434 28.5739C97.8278 29.071 96.6346 29.3196 95.2638 29.3196ZM105.441 29V12.6364H109.18V15.3636H109.35C109.649 14.419 110.16 13.6911 110.884 13.1797C111.616 12.6612 112.45 12.402 113.388 12.402C113.601 12.402 113.839 12.4126 114.102 12.4339C114.372 12.4482 114.595 12.473 114.773 12.5085V16.0561C114.61 15.9993 114.35 15.9496 113.995 15.907C113.647 15.8572 113.31 15.8324 112.983 15.8324C112.28 15.8324 111.648 15.9851 111.087 16.2905C110.533 16.5888 110.096 17.0043 109.776 17.5369C109.457 18.0696 109.297 18.6839 109.297 19.38V29H105.441ZM117.335 29V12.6364H121.192V29H117.335ZM119.274 10.3139C118.663 10.3139 118.138 10.1115 117.697 9.70668C117.257 9.29474 117.037 8.80114 117.037 8.22585C117.037 7.64347 117.257 7.14986 117.697 6.74503C118.138 6.3331 118.663 6.12713 119.274 6.12713C119.892 6.12713 120.417 6.3331 120.851 6.74503C121.291 7.14986 121.511 7.64347 121.511 8.22585C121.511 8.80114 121.291 9.29474 120.851 9.70668C120.417 10.1115 119.892 10.3139 119.274 10.3139ZM125.157 35.1364V12.6364H128.95V15.3423H129.174C129.373 14.9446 129.653 14.522 130.015 14.0746C130.377 13.62 130.868 13.233 131.485 12.9134C132.103 12.5866 132.892 12.4233 133.85 12.4233C135.115 12.4233 136.255 12.7464 137.27 13.3928C138.293 14.032 139.103 14.9801 139.699 16.2372C140.303 17.4872 140.605 19.0213 140.605 20.8395C140.605 22.6364 140.31 24.1634 139.721 25.4205C139.131 26.6776 138.328 27.6364 137.313 28.2969C136.297 28.9574 135.147 29.2876 133.861 29.2876C132.924 29.2876 132.146 29.1314 131.528 28.8189C130.91 28.5064 130.413 28.13 130.037 27.6896C129.667 27.2422 129.38 26.8196 129.174 26.4219H129.014V35.1364H125.157ZM128.939 20.8182C128.939 21.8764 129.088 22.8033 129.387 23.5987C129.692 24.3942 130.129 25.0156 130.697 25.4631C131.272 25.9034 131.968 26.1236 132.785 26.1236C133.637 26.1236 134.351 25.8963 134.926 25.4418C135.502 24.9801 135.935 24.3516 136.226 23.5561C136.525 22.7536 136.674 21.8409 136.674 20.8182C136.674 19.8026 136.528 18.9006 136.237 18.1122C135.946 17.3239 135.512 16.706 134.937 16.2585C134.362 15.8111 133.645 15.5874 132.785 15.5874C131.961 15.5874 131.262 15.804 130.686 16.2372C130.111 16.6705 129.674 17.2777 129.376 18.0589C129.085 18.8402 128.939 19.7599 128.939 20.8182ZM152.078 12.6364V15.6193H142.672V12.6364H152.078ZM144.994 8.71591H148.85V24.0781C148.85 24.5966 148.929 24.9943 149.085 25.2713C149.248 25.5412 149.461 25.7259 149.724 25.8253C149.987 25.9247 150.278 25.9744 150.598 25.9744C150.839 25.9744 151.059 25.9567 151.258 25.9212C151.464 25.8857 151.62 25.8537 151.727 25.8253L152.377 28.8402C152.171 28.9112 151.876 28.9893 151.493 29.0746C151.116 29.1598 150.654 29.2095 150.108 29.2237C149.142 29.2521 148.272 29.1065 147.498 28.7869C146.723 28.4602 146.109 27.956 145.654 27.2741C145.207 26.5923 144.987 25.7401 144.994 24.7173V8.71591Z"
		fill="#A6A6A6"
	/>
</svg>
