<svg
	width="196"
	height="36"
	viewBox="0 0 196 36"
	fill="none"
	xmlns="http://www.w3.org/2000/svg"
>
	<circle cx="15" cy="18" r="15" fill="#A6A6A6" />
	<path
		d="M21 18C21 21.866 17.866 25 14 25C10.134 25 7 21.866 7 18C7 14.134 10.134 11 14 11C15.9587 11 17.7295 11.8045 19 13.101"
		stroke="white"
		stroke-width="2"
	/>
	<path d="M17 20L21 18L23.5 21.5" stroke="white" stroke-width="2" />
	<path
		d="M49.098 35.4773C47.7131 35.4773 46.5234 35.2891 45.5291 34.9126C44.5348 34.5433 43.7358 34.0462 43.1321 33.4212C42.5284 32.7962 42.1094 32.1037 41.875 31.3438L45.348 30.5021C45.5043 30.8217 45.7315 31.1378 46.0298 31.4503C46.3281 31.7699 46.7294 32.0327 47.2337 32.2386C47.745 32.4517 48.3878 32.5582 49.1619 32.5582C50.2557 32.5582 51.1612 32.2919 51.8786 31.7592C52.5959 31.2337 52.9545 30.3672 52.9545 29.1598V26.0597H52.7628C52.5639 26.4574 52.2727 26.8658 51.8892 27.2848C51.5128 27.7038 51.0121 28.0554 50.3871 28.3395C49.7692 28.6236 48.9915 28.7656 48.054 28.7656C46.7969 28.7656 45.657 28.4709 44.6342 27.8814C43.6186 27.2848 42.8089 26.397 42.2053 25.218C41.6087 24.032 41.3104 22.5476 41.3104 20.7649C41.3104 18.968 41.6087 17.4517 42.2053 16.2159C42.8089 14.973 43.6222 14.032 44.6449 13.3928C45.6676 12.7464 46.8075 12.4233 48.0646 12.4233C49.0234 12.4233 49.8118 12.5866 50.4297 12.9134C51.0547 13.233 51.5518 13.62 51.9212 14.0746C52.2905 14.522 52.571 14.9446 52.7628 15.3423H52.9759V12.6364H56.7791V29.2663C56.7791 30.6655 56.4453 31.8232 55.7777 32.7393C55.1101 33.6555 54.1974 34.3409 53.0398 34.7955C51.8821 35.25 50.5682 35.4773 49.098 35.4773ZM49.13 25.7401C49.9467 25.7401 50.6428 25.5412 51.218 25.1435C51.7933 24.7457 52.2301 24.174 52.5284 23.4283C52.8267 22.6825 52.9759 21.7876 52.9759 20.7436C52.9759 19.7138 52.8267 18.8118 52.5284 18.0376C52.2372 17.2635 51.804 16.6634 51.2287 16.2372C50.6605 15.804 49.9609 15.5874 49.13 15.5874C48.2706 15.5874 47.5533 15.8111 46.978 16.2585C46.4027 16.706 45.9695 17.3203 45.6783 18.1016C45.3871 18.8757 45.2415 19.7564 45.2415 20.7436C45.2415 21.745 45.3871 22.6222 45.6783 23.375C45.9766 24.1207 46.4134 24.7031 46.9886 25.1222C47.571 25.5341 48.2848 25.7401 49.13 25.7401ZM60.7315 29V12.6364H64.4709V15.3636H64.6413C64.9396 14.419 65.451 13.6911 66.1754 13.1797C66.907 12.6612 67.7415 12.402 68.679 12.402C68.892 12.402 69.13 12.4126 69.3928 12.4339C69.6626 12.4482 69.8864 12.473 70.0639 12.5085V16.0561C69.9006 15.9993 69.6413 15.9496 69.2862 15.907C68.9382 15.8572 68.6009 15.8324 68.2741 15.8324C67.571 15.8324 66.9389 15.9851 66.3778 16.2905C65.8239 16.5888 65.3871 17.0043 65.0675 17.5369C64.7479 18.0696 64.5881 18.6839 64.5881 19.38V29H60.7315ZM77.0419 29.3303C76.005 29.3303 75.071 29.1456 74.2401 28.7763C73.4162 28.3999 72.7628 27.8459 72.2798 27.1143C71.804 26.3828 71.5661 25.4808 71.5661 24.4084C71.5661 23.4851 71.7365 22.7216 72.0774 22.1179C72.4183 21.5142 72.8835 21.0312 73.473 20.669C74.0625 20.3068 74.7266 20.0334 75.4652 19.8487C76.2109 19.657 76.9815 19.5185 77.777 19.4332C78.7358 19.3338 79.5135 19.245 80.1101 19.1669C80.7067 19.0817 81.1399 18.9538 81.4098 18.7834C81.6868 18.6058 81.8253 18.3324 81.8253 17.9631V17.8991C81.8253 17.0966 81.5874 16.4751 81.1115 16.0348C80.6357 15.5945 79.9503 15.3743 79.0554 15.3743C78.1108 15.3743 77.3615 15.5803 76.8075 15.9922C76.2607 16.4041 75.8913 16.8906 75.6996 17.4517L72.0987 16.9403C72.3828 15.946 72.8516 15.1151 73.505 14.4474C74.1584 13.7727 74.9574 13.2685 75.902 12.9347C76.8466 12.5938 77.8906 12.4233 79.0341 12.4233C79.8224 12.4233 80.6072 12.5156 81.3885 12.7003C82.1697 12.8849 82.8835 13.1903 83.5298 13.6165C84.1761 14.0355 84.6946 14.6072 85.0852 15.3317C85.483 16.0561 85.6818 16.9616 85.6818 18.0483V29H81.9744V26.7521H81.8466C81.6122 27.2067 81.282 27.6328 80.8558 28.0305C80.4368 28.4212 79.9077 28.7372 79.2685 28.9787C78.6364 29.2131 77.8942 29.3303 77.0419 29.3303ZM78.0433 26.4964C78.8175 26.4964 79.4886 26.3437 80.0568 26.0384C80.625 25.7259 81.0618 25.3139 81.3672 24.8026C81.6797 24.2912 81.8359 23.7337 81.8359 23.13V21.2017C81.7152 21.3011 81.5092 21.3935 81.218 21.4787C80.9339 21.5639 80.6143 21.6385 80.2592 21.7024C79.9041 21.7663 79.5526 21.8232 79.2045 21.8729C78.8565 21.9226 78.5547 21.9652 78.299 22.0007C77.7237 22.0788 77.2088 22.2067 76.7543 22.3842C76.2997 22.5618 75.9411 22.8104 75.6783 23.13C75.4155 23.4425 75.2841 23.8473 75.2841 24.3445C75.2841 25.0547 75.5433 25.5909 76.0618 25.9531C76.5803 26.3153 77.2408 26.4964 78.0433 26.4964ZM89.5597 29V12.6364H93.2457V15.4169H93.4375C93.7784 14.4794 94.343 13.7479 95.1314 13.2223C95.9197 12.6896 96.8608 12.4233 97.9545 12.4233C99.0625 12.4233 99.9964 12.6932 100.756 13.233C101.523 13.7656 102.063 14.4936 102.376 15.4169H102.546C102.908 14.5078 103.519 13.7834 104.379 13.2436C105.245 12.6967 106.271 12.4233 107.457 12.4233C108.963 12.4233 110.192 12.8991 111.143 13.8509C112.095 14.8026 112.571 16.1911 112.571 18.0163V29H108.704V18.6129C108.704 17.5973 108.434 16.8551 107.894 16.3864C107.354 15.9105 106.694 15.6726 105.913 15.6726C104.982 15.6726 104.254 15.9638 103.729 16.5462C103.21 17.1214 102.951 17.8707 102.951 18.794V29H99.169V18.4531C99.169 17.608 98.9134 16.9332 98.402 16.429C97.8977 15.9247 97.2372 15.6726 96.4205 15.6726C95.8665 15.6726 95.3622 15.8146 94.9077 16.0987C94.4531 16.3757 94.0909 16.7699 93.821 17.2812C93.5511 17.7855 93.4162 18.375 93.4162 19.0497V29H89.5597ZM116.483 29V12.6364H120.17V15.4169H120.361C120.702 14.4794 121.267 13.7479 122.055 13.2223C122.844 12.6896 123.785 12.4233 124.878 12.4233C125.986 12.4233 126.92 12.6932 127.68 13.233C128.447 13.7656 128.987 14.4936 129.3 15.4169H129.47C129.832 14.5078 130.443 13.7834 131.302 13.2436C132.169 12.6967 133.195 12.4233 134.381 12.4233C135.887 12.4233 137.116 12.8991 138.067 13.8509C139.019 14.8026 139.495 16.1911 139.495 18.0163V29H135.628V18.6129C135.628 17.5973 135.358 16.8551 134.818 16.3864C134.278 15.9105 133.618 15.6726 132.836 15.6726C131.906 15.6726 131.178 15.9638 130.653 16.5462C130.134 17.1214 129.875 17.8707 129.875 18.794V29H126.093V18.4531C126.093 17.608 125.837 16.9332 125.326 16.429C124.822 15.9247 124.161 15.6726 123.344 15.6726C122.79 15.6726 122.286 15.8146 121.831 16.0987C121.377 16.3757 121.015 16.7699 120.745 17.2812C120.475 17.7855 120.34 18.375 120.34 19.0497V29H116.483ZM148.116 29.3303C147.079 29.3303 146.145 29.1456 145.314 28.7763C144.49 28.3999 143.837 27.8459 143.354 27.1143C142.878 26.3828 142.64 25.4808 142.64 24.4084C142.64 23.4851 142.811 22.7216 143.152 22.1179C143.493 21.5142 143.958 21.0312 144.547 20.669C145.137 20.3068 145.801 20.0334 146.539 19.8487C147.285 19.657 148.056 19.5185 148.851 19.4332C149.81 19.3338 150.588 19.245 151.184 19.1669C151.781 19.0817 152.214 18.9538 152.484 18.7834C152.761 18.6058 152.9 18.3324 152.9 17.9631V17.8991C152.9 17.0966 152.662 16.4751 152.186 16.0348C151.71 15.5945 151.025 15.3743 150.13 15.3743C149.185 15.3743 148.436 15.5803 147.882 15.9922C147.335 16.4041 146.966 16.8906 146.774 17.4517L143.173 16.9403C143.457 15.946 143.926 15.1151 144.579 14.4474C145.233 13.7727 146.032 13.2685 146.976 12.9347C147.921 12.5938 148.965 12.4233 150.108 12.4233C150.897 12.4233 151.681 12.5156 152.463 12.7003C153.244 12.8849 153.958 13.1903 154.604 13.6165C155.25 14.0355 155.769 14.6072 156.159 15.3317C156.557 16.0561 156.756 16.9616 156.756 18.0483V29H153.049V26.7521H152.921C152.686 27.2067 152.356 27.6328 151.93 28.0305C151.511 28.4212 150.982 28.7372 150.343 28.9787C149.711 29.2131 148.968 29.3303 148.116 29.3303ZM149.118 26.4964C149.892 26.4964 150.563 26.3437 151.131 26.0384C151.699 25.7259 152.136 25.3139 152.441 24.8026C152.754 24.2912 152.91 23.7337 152.91 23.13V21.2017C152.789 21.3011 152.583 21.3935 152.292 21.4787C152.008 21.5639 151.689 21.6385 151.333 21.7024C150.978 21.7663 150.627 21.8232 150.279 21.8729C149.931 21.9226 149.629 21.9652 149.373 22.0007C148.798 22.0788 148.283 22.2067 147.828 22.3842C147.374 22.5618 147.015 22.8104 146.752 23.13C146.49 23.4425 146.358 23.8473 146.358 24.3445C146.358 25.0547 146.618 25.5909 147.136 25.9531C147.654 26.3153 148.315 26.4964 149.118 26.4964ZM160.634 29V12.6364H164.373V15.3636H164.544C164.842 14.419 165.353 13.6911 166.078 13.1797C166.809 12.6612 167.644 12.402 168.581 12.402C168.794 12.402 169.032 12.4126 169.295 12.4339C169.565 12.4482 169.789 12.473 169.966 12.5085V16.0561C169.803 15.9993 169.544 15.9496 169.189 15.907C168.841 15.8572 168.503 15.8324 168.176 15.8324C167.473 15.8324 166.841 15.9851 166.28 16.2905C165.726 16.5888 165.289 17.0043 164.97 17.5369C164.65 18.0696 164.49 18.6839 164.49 19.38V29H160.634ZM176.385 7.18182V29H172.528V7.18182H176.385ZM182.748 35.1364C182.222 35.1364 181.736 35.0938 181.288 35.0085C180.848 34.9304 180.496 34.8381 180.233 34.7315L181.128 31.7273C181.689 31.8906 182.19 31.9688 182.631 31.9616C183.071 31.9545 183.458 31.8161 183.792 31.5462C184.133 31.2834 184.42 30.843 184.655 30.2251L184.985 29.3409L179.051 12.6364H183.142L186.913 24.9943H187.084L190.866 12.6364H194.967L188.415 30.9815C188.11 31.848 187.705 32.5902 187.201 33.2081C186.697 33.8331 186.079 34.3089 185.347 34.6357C184.623 34.9695 183.756 35.1364 182.748 35.1364Z"
		fill="#A6A6A6"
	/>
</svg>
