<svg
	width="201"
	height="36"
	viewBox="0 0 201 36"
	fill="none"
	xmlns="http://www.w3.org/2000/svg"
>
	<path
		d="M46.1044 7.18182V29H42.152V7.18182H46.1044ZM68.3141 7.18182V29H64.7985L54.5179 14.1385H54.3368V29H50.3844V7.18182H53.9213L64.1912 22.054H64.383V7.18182H68.3141ZM71.6619 10.495V7.18182H89.0696V10.495H82.326V29H78.4055V10.495H71.6619ZM92.4254 29V7.18182H106.616V10.495H96.3778V16.4183H105.881V19.7315H96.3778V25.6868H106.701V29H92.4254ZM110.648 29V7.18182H118.83C120.506 7.18182 121.912 7.47301 123.049 8.0554C124.192 8.63778 125.055 9.45454 125.637 10.5057C126.227 11.5497 126.522 12.7678 126.522 14.1598C126.522 15.5589 126.223 16.7734 125.627 17.8033C125.037 18.826 124.167 19.6179 123.017 20.179C121.866 20.733 120.453 21.0099 118.777 21.0099H112.949V17.7287H118.244C119.224 17.7287 120.027 17.5937 120.652 17.3239C121.277 17.0469 121.738 16.6456 122.037 16.12C122.342 15.5874 122.495 14.9339 122.495 14.1598C122.495 13.3857 122.342 12.7251 122.037 12.1783C121.731 11.6243 121.266 11.2053 120.641 10.9212C120.016 10.63 119.21 10.4844 118.223 10.4844H114.6V29H110.648ZM121.919 19.1136L127.321 29H122.91L117.605 19.1136H121.919ZM148.835 14.5433H144.851C144.737 13.8899 144.528 13.3111 144.222 12.8068C143.917 12.2955 143.537 11.8622 143.082 11.5071C142.628 11.152 142.109 10.8857 141.527 10.7081C140.952 10.5234 140.33 10.4311 139.663 10.4311C138.477 10.4311 137.425 10.7294 136.509 11.326C135.593 11.9155 134.876 12.782 134.357 13.9254C133.839 15.0618 133.58 16.4503 133.58 18.0909C133.58 19.7599 133.839 21.1662 134.357 22.3097C134.883 23.446 135.6 24.3054 136.509 24.8878C137.425 25.4631 138.473 25.7507 139.652 25.7507C140.305 25.7507 140.916 25.6655 141.484 25.495C142.06 25.3175 142.575 25.0582 143.029 24.7173C143.491 24.3764 143.878 23.9574 144.19 23.4602C144.51 22.9631 144.73 22.3949 144.851 21.7557L148.835 21.777C148.686 22.8139 148.363 23.7869 147.866 24.696C147.376 25.6051 146.733 26.4077 145.938 27.1037C145.142 27.7926 144.212 28.3324 143.146 28.723C142.081 29.1065 140.898 29.2983 139.599 29.2983C137.681 29.2983 135.969 28.8544 134.464 27.9666C132.958 27.0788 131.772 25.7969 130.906 24.1207C130.039 22.4446 129.606 20.4347 129.606 18.0909C129.606 15.7401 130.043 13.7301 130.916 12.0611C131.79 10.3849 132.979 9.10298 134.485 8.2152C135.991 7.32741 137.695 6.88352 139.599 6.88352C140.813 6.88352 141.942 7.05398 142.987 7.39489C144.031 7.7358 144.961 8.23651 145.778 8.89702C146.594 9.55043 147.266 10.353 147.791 11.3047C148.324 12.2493 148.672 13.3288 148.835 14.5433ZM171.95 18.0909C171.95 20.4418 171.51 22.4553 170.629 24.1314C169.756 25.8004 168.563 27.0788 167.05 27.9666C165.544 28.8544 163.836 29.2983 161.926 29.2983C160.015 29.2983 158.303 28.8544 156.791 27.9666C155.285 27.0717 154.092 25.7898 153.211 24.1207C152.338 22.4446 151.901 20.4347 151.901 18.0909C151.901 15.7401 152.338 13.7301 153.211 12.0611C154.092 10.3849 155.285 9.10298 156.791 8.2152C158.303 7.32741 160.015 6.88352 161.926 6.88352C163.836 6.88352 165.544 7.32741 167.05 8.2152C168.563 9.10298 169.756 10.3849 170.629 12.0611C171.51 13.7301 171.95 15.7401 171.95 18.0909ZM167.977 18.0909C167.977 16.4361 167.718 15.0405 167.199 13.9041C166.688 12.7607 165.977 11.8977 165.068 11.3153C164.159 10.7259 163.112 10.4311 161.926 10.4311C160.74 10.4311 159.692 10.7259 158.783 11.3153C157.874 11.8977 157.16 12.7607 156.642 13.9041C156.13 15.0405 155.874 16.4361 155.874 18.0909C155.874 19.7457 156.13 21.1449 156.642 22.2884C157.16 23.4247 157.874 24.2876 158.783 24.8771C159.692 25.4595 160.74 25.7507 161.926 25.7507C163.112 25.7507 164.159 25.4595 165.068 24.8771C165.977 24.2876 166.688 23.4247 167.199 22.2884C167.718 21.1449 167.977 19.7457 167.977 18.0909ZM175.687 7.18182H180.524L187.001 22.9915H187.257L193.734 7.18182H198.571V29H194.778V14.0107H194.576L188.546 28.9361H185.712L179.682 13.9787H179.48V29H175.687V7.18182Z"
		fill="#A6A6A6"
	/>
	<rect y="3" width="30" height="30" rx="3" fill="#A6A6A6" />
	<rect x="4" y="10" width="2" height="12" fill="white" />
	<rect x="9" y="7" width="2" height="18" fill="white" />
	<rect x="14" y="7" width="2" height="18" fill="white" />
	<rect x="19" y="7" width="2" height="18" fill="white" />
	<path
		d="M5 27C7.83333 29.2639 16 32.4333 26 27"
		stroke="white"
		stroke-width="2"
		stroke-linecap="round"
	/>
	<rect x="24" y="10" width="2" height="12" fill="white" />
</svg>
