<svg
	width="145"
	height="36"
	viewBox="0 0 145 36"
	fill="none"
	xmlns="http://www.w3.org/2000/svg"
>
	<path
		d="M68.0817 7.18182V29H64.5661L54.2855 14.1385H54.1044V29H50.152V7.18182H53.6889L63.9588 22.054H64.1506V7.18182H68.0817ZM79.3556 29.3196C77.7576 29.3196 76.3727 28.968 75.2008 28.2649C74.0289 27.5618 73.1199 26.5781 72.4735 25.3139C71.8343 24.0497 71.5147 22.5724 71.5147 20.8821C71.5147 19.1918 71.8343 17.7109 72.4735 16.4396C73.1199 15.1683 74.0289 14.1811 75.2008 13.478C76.3727 12.7749 77.7576 12.4233 79.3556 12.4233C80.9537 12.4233 82.3386 12.7749 83.5105 13.478C84.6824 14.1811 85.5879 15.1683 86.2271 16.4396C86.8734 17.7109 87.1966 19.1918 87.1966 20.8821C87.1966 22.5724 86.8734 24.0497 86.2271 25.3139C85.5879 26.5781 84.6824 27.5618 83.5105 28.2649C82.3386 28.968 80.9537 29.3196 79.3556 29.3196ZM79.377 26.2301C80.2434 26.2301 80.9679 25.9922 81.5502 25.5163C82.1326 25.0334 82.5659 24.3871 82.85 23.5774C83.1412 22.7678 83.2868 21.8658 83.2868 20.8714C83.2868 19.87 83.1412 18.9645 82.85 18.1548C82.5659 17.3381 82.1326 16.6882 81.5502 16.2053C80.9679 15.7223 80.2434 15.4808 79.377 15.4808C78.4892 15.4808 77.7505 15.7223 77.161 16.2053C76.5787 16.6882 76.1419 17.3381 75.8507 18.1548C75.5666 18.9645 75.4245 19.87 75.4245 20.8714C75.4245 21.8658 75.5666 22.7678 75.8507 23.5774C76.1419 24.3871 76.5787 25.0334 77.161 25.5163C77.7505 25.9922 78.4892 26.2301 79.377 26.2301ZM98.641 12.6364V15.6193H89.234V12.6364H98.641ZM91.5565 8.71591H95.413V24.0781C95.413 24.5966 95.4911 24.9943 95.6474 25.2713C95.8107 25.5412 96.0238 25.7259 96.2866 25.8253C96.5494 25.9247 96.8406 25.9744 97.1602 25.9744C97.4016 25.9744 97.6218 25.9567 97.8207 25.9212C98.0266 25.8857 98.1829 25.8537 98.2894 25.8253L98.9393 28.8402C98.7333 28.9112 98.4386 28.9893 98.055 29.0746C97.6786 29.1598 97.217 29.2095 96.6701 29.2237C95.7042 29.2521 94.8342 29.1065 94.06 28.7869C93.2859 28.4602 92.6715 27.956 92.217 27.2741C91.7695 26.5923 91.5494 25.7401 91.5565 24.7173V8.71591ZM101.866 29V12.6364H105.723V29H101.866ZM103.805 10.3139C103.194 10.3139 102.669 10.1115 102.229 9.70668C101.788 9.29474 101.568 8.80114 101.568 8.22585C101.568 7.64347 101.788 7.14986 102.229 6.74503C102.669 6.3331 103.194 6.12713 103.805 6.12713C104.423 6.12713 104.949 6.3331 105.382 6.74503C105.822 7.14986 106.042 7.64347 106.042 8.22585C106.042 8.80114 105.822 9.29474 105.382 9.70668C104.949 10.1115 104.423 10.3139 103.805 10.3139ZM116.826 29.3196C115.228 29.3196 113.843 28.968 112.672 28.2649C111.5 27.5618 110.591 26.5781 109.944 25.3139C109.305 24.0497 108.985 22.5724 108.985 20.8821C108.985 19.1918 109.305 17.7109 109.944 16.4396C110.591 15.1683 111.5 14.1811 112.672 13.478C113.843 12.7749 115.228 12.4233 116.826 12.4233C118.424 12.4233 119.809 12.7749 120.981 13.478C122.153 14.1811 123.059 15.1683 123.698 16.4396C124.344 17.7109 124.667 19.1918 124.667 20.8821C124.667 22.5724 124.344 24.0497 123.698 25.3139C123.059 26.5781 122.153 27.5618 120.981 28.2649C119.809 28.968 118.424 29.3196 116.826 29.3196ZM116.848 26.2301C117.714 26.2301 118.439 25.9922 119.021 25.5163C119.603 25.0334 120.037 24.3871 120.321 23.5774C120.612 22.7678 120.757 21.8658 120.757 20.8714C120.757 19.87 120.612 18.9645 120.321 18.1548C120.037 17.3381 119.603 16.6882 119.021 16.2053C118.439 15.7223 117.714 15.4808 116.848 15.4808C115.96 15.4808 115.221 15.7223 114.632 16.2053C114.049 16.6882 113.613 17.3381 113.321 18.1548C113.037 18.9645 112.895 19.87 112.895 20.8714C112.895 21.8658 113.037 22.7678 113.321 23.5774C113.613 24.3871 114.049 25.0334 114.632 25.5163C115.221 25.9922 115.96 26.2301 116.848 26.2301ZM131.797 19.4119V29H127.941V12.6364H131.627V15.4169H131.818C132.195 14.5007 132.795 13.7727 133.619 13.233C134.45 12.6932 135.476 12.4233 136.698 12.4233C137.827 12.4233 138.811 12.6648 139.649 13.1477C140.494 13.6307 141.147 14.3303 141.609 15.2464C142.078 16.1626 142.308 17.2741 142.301 18.581V29H138.445V19.1776C138.445 18.0838 138.161 17.228 137.593 16.6101C137.031 15.9922 136.254 15.6832 135.259 15.6832C134.585 15.6832 133.985 15.8324 133.459 16.1307C132.941 16.4219 132.532 16.8445 132.234 17.3984C131.943 17.9524 131.797 18.6236 131.797 19.4119Z"
		fill="#A6A6A6"
	/>
	<path
		d="M28.3878 14.4545V29H26.044L19.1903 19.0923H19.0696V29H16.4347V14.4545H18.7926L25.6392 24.3693H25.767V14.4545H28.3878Z"
		fill="#A6A6A6"
	/>
	<rect x="9" y="9" width="28" height="26" stroke="#A6A6A6" stroke-width="2" />
	<path
		d="M2.66145 2L8.37574 7H35.3386L29.6243 2H2.66145Z"
		stroke="#A6A6A6"
		stroke-width="2"
	/>
	<path d="M8 8L0 1V29L8 36V8Z" fill="#A6A6A6" />
</svg>
