<svg
	width="180"
	height="38"
	viewBox="0 0 180 38"
	fill="none"
	xmlns="http://www.w3.org/2000/svg"
>
	<path
		d="M60.2005 9.18182H64.1529V23.4361C64.1529 24.9986 63.7836 26.3729 63.0449 27.5589C62.3134 28.745 61.2836 29.6719 59.9554 30.3395C58.6273 31 57.0755 31.3303 55.2999 31.3303C53.5172 31.3303 51.9618 31 50.6337 30.3395C49.3056 29.6719 48.2757 28.745 47.5442 27.5589C46.8127 26.3729 46.4469 24.9986 46.4469 23.4361V9.18182H50.3993V23.1058C50.3993 24.0149 50.5982 24.8246 50.9959 25.5348C51.4007 26.245 51.9689 26.8026 52.7005 27.2074C53.432 27.6051 54.2985 27.804 55.2999 27.804C56.3013 27.804 57.1678 27.6051 57.8993 27.2074C58.638 26.8026 59.2061 26.245 59.6039 25.5348C60.0016 24.8246 60.2005 24.0149 60.2005 23.1058V9.18182ZM72.1349 21.4119V31H68.2784V14.6364H71.9645V17.4169H72.1562C72.5327 16.5007 73.1328 15.7727 73.9567 15.233C74.7876 14.6932 75.8139 14.4233 77.0355 14.4233C78.1648 14.4233 79.1484 14.6648 79.9865 15.1477C80.8317 15.6307 81.4851 16.3303 81.9467 17.2464C82.4155 18.1626 82.6463 19.2741 82.6392 20.581V31H78.7827V21.1776C78.7827 20.0838 78.4986 19.228 77.9304 18.6101C77.3693 17.9922 76.5916 17.6832 75.5973 17.6832C74.9226 17.6832 74.3224 17.8324 73.7969 18.1307C73.2784 18.4219 72.87 18.8445 72.5717 19.3984C72.2805 19.9524 72.1349 20.6236 72.1349 21.4119ZM99.4929 18.9616L95.9773 19.3452C95.8778 18.9901 95.7038 18.6562 95.4553 18.3438C95.2138 18.0312 94.8871 17.7791 94.4751 17.5874C94.0632 17.3956 93.5589 17.2997 92.9624 17.2997C92.1598 17.2997 91.4851 17.4737 90.9382 17.8217C90.3984 18.1697 90.1321 18.6207 90.1392 19.1747C90.1321 19.6506 90.3061 20.0376 90.6612 20.3359C91.0234 20.6342 91.62 20.8793 92.451 21.071L95.2422 21.6676C96.7905 22.0014 97.9411 22.5305 98.6939 23.255C99.4538 23.9794 99.8374 24.9276 99.8445 26.0994C99.8374 27.1293 99.5355 28.0384 98.9389 28.8267C98.3494 29.608 97.5291 30.2187 96.478 30.6591C95.4268 31.0994 94.2195 31.3196 92.8558 31.3196C90.853 31.3196 89.2408 30.9006 88.0192 30.0625C86.7976 29.2173 86.0696 28.0419 85.8352 26.5362L89.5959 26.174C89.7663 26.9126 90.1286 27.4702 90.6825 27.8466C91.2365 28.223 91.9574 28.4112 92.8452 28.4112C93.7614 28.4112 94.4964 28.223 95.0504 27.8466C95.6115 27.4702 95.892 27.005 95.892 26.451C95.892 25.9822 95.7109 25.5952 95.3487 25.2898C94.9936 24.9844 94.4396 24.75 93.6868 24.5866L90.8956 24.0007C89.326 23.674 88.1648 23.1236 87.4119 22.3494C86.6591 21.5682 86.2862 20.581 86.2933 19.3878C86.2862 18.3793 86.5597 17.5057 87.1136 16.767C87.6747 16.0213 88.4524 15.446 89.4467 15.0412C90.4482 14.6293 91.6023 14.4233 92.9091 14.4233C94.8267 14.4233 96.3359 14.8317 97.4368 15.6484C98.5447 16.4652 99.2301 17.5696 99.4929 18.9616ZM103.025 37.1364V14.6364H106.817V17.3423H107.041C107.24 16.9446 107.52 16.522 107.882 16.0746C108.245 15.62 108.735 15.233 109.353 14.9134C109.971 14.5866 110.759 14.4233 111.718 14.4233C112.982 14.4233 114.122 14.7464 115.137 15.3928C116.16 16.032 116.97 16.9801 117.566 18.2372C118.17 19.4872 118.472 21.0213 118.472 22.8395C118.472 24.6364 118.177 26.1634 117.588 27.4205C116.998 28.6776 116.196 29.6364 115.18 30.2969C114.164 30.9574 113.014 31.2876 111.728 31.2876C110.791 31.2876 110.013 31.1314 109.395 30.8189C108.777 30.5064 108.28 30.13 107.904 29.6896C107.534 29.2422 107.247 28.8196 107.041 28.4219H106.881V37.1364H103.025ZM106.806 22.8182C106.806 23.8764 106.956 24.8033 107.254 25.5987C107.559 26.3942 107.996 27.0156 108.564 27.4631C109.14 27.9034 109.836 28.1236 110.652 28.1236C111.505 28.1236 112.218 27.8963 112.794 27.4418C113.369 26.9801 113.802 26.3516 114.093 25.5561C114.392 24.7536 114.541 23.8409 114.541 22.8182C114.541 21.8026 114.395 20.9006 114.104 20.1122C113.813 19.3239 113.38 18.706 112.804 18.2585C112.229 17.8111 111.512 17.5874 110.652 17.5874C109.828 17.5874 109.129 17.804 108.554 18.2372C107.978 18.6705 107.542 19.2777 107.243 20.0589C106.952 20.8402 106.806 21.7599 106.806 22.8182ZM125.631 9.18182V31H121.775V9.18182H125.631ZM134.306 31.3303C133.269 31.3303 132.335 31.1456 131.504 30.7763C130.68 30.3999 130.026 29.8459 129.544 29.1143C129.068 28.3828 128.83 27.4808 128.83 26.4084C128.83 25.4851 129 24.7216 129.341 24.1179C129.682 23.5142 130.147 23.0312 130.737 22.669C131.326 22.3068 131.99 22.0334 132.729 21.8487C133.475 21.657 134.245 21.5185 135.041 21.4332C135.999 21.3338 136.777 21.245 137.374 21.1669C137.97 21.0817 138.404 20.9538 138.673 20.7834C138.95 20.6058 139.089 20.3324 139.089 19.9631V19.8991C139.089 19.0966 138.851 18.4751 138.375 18.0348C137.899 17.5945 137.214 17.3743 136.319 17.3743C135.374 17.3743 134.625 17.5803 134.071 17.9922C133.524 18.4041 133.155 18.8906 132.963 19.4517L129.362 18.9403C129.646 17.946 130.115 17.1151 130.769 16.4474C131.422 15.7727 132.221 15.2685 133.166 14.9347C134.11 14.5938 135.154 14.4233 136.298 14.4233C137.086 14.4233 137.871 14.5156 138.652 14.7003C139.433 14.8849 140.147 15.1903 140.794 15.6165C141.44 16.0355 141.958 16.6072 142.349 17.3317C142.747 18.0561 142.945 18.9616 142.945 20.0483V31H139.238V28.7521H139.11C138.876 29.2067 138.546 29.6328 138.119 30.0305C137.7 30.4212 137.171 30.7372 136.532 30.9787C135.9 31.2131 135.158 31.3303 134.306 31.3303ZM135.307 28.4964C136.081 28.4964 136.752 28.3437 137.32 28.0384C137.889 27.7259 138.325 27.3139 138.631 26.8026C138.943 26.2912 139.1 25.7337 139.1 25.13V23.2017C138.979 23.3011 138.773 23.3935 138.482 23.4787C138.198 23.5639 137.878 23.6385 137.523 23.7024C137.168 23.7663 136.816 23.8232 136.468 23.8729C136.12 23.9226 135.818 23.9652 135.563 24.0007C134.987 24.0788 134.472 24.2067 134.018 24.3842C133.563 24.5618 133.205 24.8104 132.942 25.13C132.679 25.4425 132.548 25.8473 132.548 26.3445C132.548 27.0547 132.807 27.5909 133.325 27.9531C133.844 28.3153 134.504 28.4964 135.307 28.4964ZM159.757 18.9616L156.241 19.3452C156.142 18.9901 155.968 18.6562 155.719 18.3438C155.477 18.0312 155.151 17.7791 154.739 17.5874C154.327 17.3956 153.823 17.2997 153.226 17.2997C152.423 17.2997 151.749 17.4737 151.202 17.8217C150.662 18.1697 150.396 18.6207 150.403 19.1747C150.396 19.6506 150.57 20.0376 150.925 20.3359C151.287 20.6342 151.884 20.8793 152.715 21.071L155.506 21.6676C157.054 22.0014 158.205 22.5305 158.958 23.255C159.718 23.9794 160.101 24.9276 160.108 26.0994C160.101 27.1293 159.799 28.0384 159.203 28.8267C158.613 29.608 157.793 30.2187 156.742 30.6591C155.691 31.0994 154.483 31.3196 153.119 31.3196C151.117 31.3196 149.504 30.9006 148.283 30.0625C147.061 29.2173 146.333 28.0419 146.099 26.5362L149.86 26.174C150.03 26.9126 150.392 27.4702 150.946 27.8466C151.5 28.223 152.221 28.4112 153.109 28.4112C154.025 28.4112 154.76 28.223 155.314 27.8466C155.875 27.4702 156.156 27.005 156.156 26.451C156.156 25.9822 155.975 25.5952 155.612 25.2898C155.257 24.9844 154.703 24.75 153.95 24.5866L151.159 24.0007C149.59 23.674 148.428 23.1236 147.676 22.3494C146.923 21.5682 146.55 20.581 146.557 19.3878C146.55 18.3793 146.823 17.5057 147.377 16.767C147.938 16.0213 148.716 15.446 149.71 15.0412C150.712 14.6293 151.866 14.4233 153.173 14.4233C155.09 14.4233 156.6 14.8317 157.7 15.6484C158.808 16.4652 159.494 17.5696 159.757 18.9616ZM167.145 21.4119V31H163.288V9.18182H167.059V17.4169H167.251C167.635 16.4936 168.228 15.7656 169.03 15.233C169.84 14.6932 170.87 14.4233 172.12 14.4233C173.256 14.4233 174.247 14.6612 175.092 15.1371C175.937 15.6129 176.591 16.3089 177.052 17.2251C177.521 18.1413 177.756 19.2599 177.756 20.581V31H173.899V21.1776C173.899 20.0767 173.615 19.2209 173.047 18.6101C172.486 17.9922 171.697 17.6832 170.682 17.6832C170 17.6832 169.389 17.8324 168.849 18.1307C168.317 18.4219 167.898 18.8445 167.592 19.3984C167.294 19.9524 167.145 20.6236 167.145 21.4119Z"
		fill="#A6A6A6"
	/>
	<rect x="11" width="12" height="9" fill="#A6A6A6" />
	<rect y="23" width="34" height="9" fill="#A6A6A6" />
	<rect x="24" y="14" width="10" height="18" fill="#A6A6A6" />
	<rect y="14" width="10" height="18" fill="#A6A6A6" />
</svg>
